{
	"asset":{
		"generator":"Khronos glTF Blender I/O v4.4.56",
		"version":"2.0"
	},
	"scene":0,
	"scenes":[
		{
			"name":"Scene",
			"nodes":[
				0
			]
		}
	],
	"nodes":[
		{
			"mesh":0,
			"name":"Arch_Door",
			"translation":[
				-1.2000000476837158,
				1.4649120569229126,
				0
			]
		}
	],
	"materials":[
		{
			"doubleSided":true,
			"name":"Wood",
			"pbrMetallicRoughness":{
				"baseColorFactor":[
					0.20189261436462402,
					0.10397916287183762,
					0.07928955554962158,
					1
				],
				"metallicFactor":0,
				"roughnessFactor":0.5
			}
		},
		{
			"doubleSided":true,
			"name":"DarkWood",
			"pbrMetallicRoughness":{
				"baseColorFactor":[
					0.11927328258752823,
					0.0632803663611412,
					0.05076603218913078,
					1
				],
				"metallicFactor":0,
				"roughnessFactor":0.5
			}
		},
		{
			"doubleSided":true,
			"name":"Metal",
			"pbrMetallicRoughness":{
				"baseColorFactor":[
					0.07698974758386612,
					0.06832612305879593,
					0.11493299156427383,
					1
				],
				"metallicFactor":0,
				"roughnessFactor":0.5
			}
		},
		{
			"doubleSided":true,
			"name":"DarkMetal",
			"pbrMetallicRoughness":{
				"baseColorFactor":[
					0.041473258286714554,
					0.03704424947500229,
					0.060716427862644196,
					1
				],
				"metallicFactor":0,
				"roughnessFactor":0.5
			}
		}
	],
	"meshes":[
		{
			"name":"Cube.044",
			"primitives":[
				{
					"attributes":{
						"POSITION":0,
						"NORMAL":1
					},
					"indices":2,
					"material":0
				},
				{
					"attributes":{
						"POSITION":3,
						"NORMAL":4
					},
					"indices":5,
					"material":1
				},
				{
					"attributes":{
						"POSITION":6,
						"NORMAL":7
					},
					"indices":8,
					"material":2
				},
				{
					"attributes":{
						"POSITION":9,
						"NORMAL":10
					},
					"indices":11,
					"material":3
				}
			]
		}
	],
	"accessors":[
		{
			"bufferView":0,
			"componentType":5126,
			"count":1178,
			"max":[
				2.254986524581909,
				1.54242742061615,
				0.1240641251206398
			],
			"min":[
				0.1485985517501831,
				-1.3701611757278442,
				-0.12319603562355042
			],
			"type":"VEC3"
		},
		{
			"bufferView":1,
			"componentType":5126,
			"count":1178,
			"type":"VEC3"
		},
		{
			"bufferView":2,
			"componentType":5123,
			"count":2232,
			"type":"SCALAR"
		},
		{
			"bufferView":3,
			"componentType":5126,
			"count":320,
			"max":[
				2.421109676361084,
				1.7319260835647583,
				0.15739497542381287
			],
			"min":[
				-2.453261913615279e-06,
				-1.4581207036972046,
				-0.16608205437660217
			],
			"type":"VEC3"
		},
		{
			"bufferView":4,
			"componentType":5126,
			"count":320,
			"type":"VEC3"
		},
		{
			"bufferView":5,
			"componentType":5123,
			"count":660,
			"type":"SCALAR"
		},
		{
			"bufferView":6,
			"componentType":5126,
			"count":360,
			"max":[
				2.0142037868499756,
				0.423916220664978,
				0.15141695737838745
			],
			"min":[
				0.3472099304199219,
				-1.0333013534545898,
				-0.1722249835729599
			],
			"type":"VEC3"
		},
		{
			"bufferView":7,
			"componentType":5126,
			"count":360,
			"type":"VEC3"
		},
		{
			"bufferView":8,
			"componentType":5123,
			"count":600,
			"type":"SCALAR"
		},
		{
			"bufferView":9,
			"componentType":5126,
			"count":96,
			"max":[
				2.2514190673828125,
				0.5281839370727539,
				0.1382083296775818
			],
			"min":[
				0.17764098942279816,
				-1.1087347269058228,
				-0.15749581158161163
			],
			"type":"VEC3"
		},
		{
			"bufferView":10,
			"componentType":5126,
			"count":96,
			"type":"VEC3"
		},
		{
			"bufferView":11,
			"componentType":5123,
			"count":168,
			"type":"SCALAR"
		}
	],
	"bufferViews":[
		{
			"buffer":0,
			"byteLength":14136,
			"byteOffset":0,
			"target":34962
		},
		{
			"buffer":0,
			"byteLength":14136,
			"byteOffset":14136,
			"target":34962
		},
		{
			"buffer":0,
			"byteLength":4464,
			"byteOffset":28272,
			"target":34963
		},
		{
			"buffer":0,
			"byteLength":3840,
			"byteOffset":32736,
			"target":34962
		},
		{
			"buffer":0,
			"byteLength":3840,
			"byteOffset":36576,
			"target":34962
		},
		{
			"buffer":0,
			"byteLength":1320,
			"byteOffset":40416,
			"target":34963
		},
		{
			"buffer":0,
			"byteLength":4320,
			"byteOffset":41736,
			"target":34962
		},
		{
			"buffer":0,
			"byteLength":4320,
			"byteOffset":46056,
			"target":34962
		},
		{
			"buffer":0,
			"byteLength":1200,
			"byteOffset":50376,
			"target":34963
		},
		{
			"buffer":0,
			"byteLength":1152,
			"byteOffset":51576,
			"target":34962
		},
		{
			"buffer":0,
			"byteLength":1152,
			"byteOffset":52728,
			"target":34962
		},
		{
			"buffer":0,
			"byteLength":336,
			"byteOffset":53880,
			"target":34963
		}
	],
	"buffers":[
		{
			"byteLength":54216,
			"uri":"Arch_Door-699272dd8f1e8b2d7106a319f7072f3e.bin"
		}
	]
}
