{
	"asset":{
		"generator":"Khronos glTF Blender I/O v4.4.56",
		"version":"2.0"
	},
	"scene":0,
	"scenes":[
		{
			"name":"Scene",
			"nodes":[
				0
			]
		}
	],
	"nodes":[
		{
			"mesh":0,
			"name":"Arch_Door_bottompivot"
		}
	],
	"materials":[
		{
			"doubleSided":true,
			"name":"Wood",
			"pbrMetallicRoughness":{
				"baseColorFactor":[
					0.20189261436462402,
					0.10397916287183762,
					0.07928955554962158,
					1
				],
				"metallicFactor":0,
				"roughnessFactor":0.5
			}
		},
		{
			"doubleSided":true,
			"name":"DarkWood",
			"pbrMetallicRoughness":{
				"baseColorFactor":[
					0.11927328258752823,
					0.0632803663611412,
					0.05076603218913078,
					1
				],
				"metallicFactor":0,
				"roughnessFactor":0.5
			}
		},
		{
			"doubleSided":true,
			"name":"Metal",
			"pbrMetallicRoughness":{
				"baseColorFactor":[
					0.07698974758386612,
					0.06832612305879593,
					0.11493299156427383,
					1
				],
				"metallicFactor":0,
				"roughnessFactor":0.5
			}
		},
		{
			"doubleSided":true,
			"name":"DarkMetal",
			"pbrMetallicRoughness":{
				"baseColorFactor":[
					0.041473258286714554,
					0.03704424947500229,
					0.060716427862644196,
					1
				],
				"metallicFactor":0,
				"roughnessFactor":0.5
			}
		}
	],
	"meshes":[
		{
			"name":"Cube.044",
			"primitives":[
				{
					"attributes":{
						"POSITION":0,
						"NORMAL":1
					},
					"indices":2,
					"material":0
				},
				{
					"attributes":{
						"POSITION":3,
						"NORMAL":4
					},
					"indices":5,
					"material":1
				},
				{
					"attributes":{
						"POSITION":6,
						"NORMAL":7
					},
					"indices":8,
					"material":2
				},
				{
					"attributes":{
						"POSITION":9,
						"NORMAL":10
					},
					"indices":11,
					"material":3
				}
			]
		}
	],
	"accessors":[
		{
			"bufferView":0,
			"componentType":5126,
			"count":1178,
			"max":[
				1.0444328784942627,
				2.9996938705444336,
				0.13147912919521332
			],
			"min":[
				-1.0619549751281738,
				0.0871051549911499,
				-0.1157810315489769
			],
			"type":"VEC3"
		},
		{
			"bufferView":1,
			"componentType":5126,
			"count":1178,
			"type":"VEC3"
		},
		{
			"bufferView":2,
			"componentType":5123,
			"count":2232,
			"type":"SCALAR"
		},
		{
			"bufferView":3,
			"componentType":5126,
			"count":320,
			"max":[
				1.2105560302734375,
				3.189192295074463,
				0.1648099720478058
			],
			"min":[
				-1.2105560302734375,
				-0.0008543729782104492,
				-0.15866705775260925
			],
			"type":"VEC3"
		},
		{
			"bufferView":4,
			"componentType":5126,
			"count":320,
			"type":"VEC3"
		},
		{
			"bufferView":5,
			"componentType":5123,
			"count":660,
			"type":"SCALAR"
		},
		{
			"bufferView":6,
			"componentType":5126,
			"count":360,
			"max":[
				0.8036502003669739,
				1.8811825513839722,
				0.15883195400238037
			],
			"min":[
				-0.8633436560630798,
				0.4239649772644043,
				-0.1648099720478058
			],
			"type":"VEC3"
		},
		{
			"bufferView":7,
			"componentType":5126,
			"count":360,
			"type":"VEC3"
		},
		{
			"bufferView":8,
			"componentType":5123,
			"count":600,
			"type":"SCALAR"
		},
		{
			"bufferView":9,
			"componentType":5126,
			"count":96,
			"max":[
				1.040865421295166,
				1.985450267791748,
				0.1456233263015747
			],
			"min":[
				-1.0329124927520752,
				0.3485316038131714,
				-0.15008080005645752
			],
			"type":"VEC3"
		},
		{
			"bufferView":10,
			"componentType":5126,
			"count":96,
			"type":"VEC3"
		},
		{
			"bufferView":11,
			"componentType":5123,
			"count":168,
			"type":"SCALAR"
		}
	],
	"bufferViews":[
		{
			"buffer":0,
			"byteLength":14136,
			"byteOffset":0,
			"target":34962
		},
		{
			"buffer":0,
			"byteLength":14136,
			"byteOffset":14136,
			"target":34962
		},
		{
			"buffer":0,
			"byteLength":4464,
			"byteOffset":28272,
			"target":34963
		},
		{
			"buffer":0,
			"byteLength":3840,
			"byteOffset":32736,
			"target":34962
		},
		{
			"buffer":0,
			"byteLength":3840,
			"byteOffset":36576,
			"target":34962
		},
		{
			"buffer":0,
			"byteLength":1320,
			"byteOffset":40416,
			"target":34963
		},
		{
			"buffer":0,
			"byteLength":4320,
			"byteOffset":41736,
			"target":34962
		},
		{
			"buffer":0,
			"byteLength":4320,
			"byteOffset":46056,
			"target":34962
		},
		{
			"buffer":0,
			"byteLength":1200,
			"byteOffset":50376,
			"target":34963
		},
		{
			"buffer":0,
			"byteLength":1152,
			"byteOffset":51576,
			"target":34962
		},
		{
			"buffer":0,
			"byteLength":1152,
			"byteOffset":52728,
			"target":34962
		},
		{
			"buffer":0,
			"byteLength":336,
			"byteOffset":53880,
			"target":34963
		}
	],
	"buffers":[
		{
			"byteLength":54216,
			"uri":"Arch_Door_bottompivot-5d73df301b44c652c11de138d1191fd8.bin"
		}
	]
}
