{
	"asset":{
		"generator":"Khronos glTF Blender I/O v4.4.56",
		"version":"2.0"
	},
	"scene":0,
	"scenes":[
		{
			"name":"Scene",
			"nodes":[
				0
			]
		}
	],
	"nodes":[
		{
			"mesh":0,
			"name":"Arch"
		}
	],
	"materials":[
		{
			"doubleSided":true,
			"name":"Wall_Dark",
			"pbrMetallicRoughness":{
				"baseColorFactor":[
					0.1959855854511261,
					0.1467834860086441,
					0.09551643580198288,
					1
				],
				"metallicFactor":0,
				"roughnessFactor":0.5
			}
		},
		{
			"doubleSided":true,
			"name":"Wall_Medium",
			"pbrMetallicRoughness":{
				"baseColorFactor":[
					0.1844661384820938,
					0.12507793307304382,
					0.07708120346069336,
					1
				],
				"metallicFactor":0,
				"roughnessFactor":0.5
			}
		},
		{
			"doubleSided":true,
			"name":"Wall_Highlights",
			"pbrMetallicRoughness":{
				"baseColorFactor":[
					0.28100576996803284,
					0.22051137685775757,
					0.1552169919013977,
					1
				],
				"metallicFactor":0,
				"roughnessFactor":0.5
			}
		}
	],
	"meshes":[
		{
			"name":"Cube.035",
			"primitives":[
				{
					"attributes":{
						"POSITION":0,
						"NORMAL":1
					},
					"indices":2,
					"material":0
				},
				{
					"attributes":{
						"POSITION":3,
						"NORMAL":4
					},
					"indices":5,
					"material":1
				},
				{
					"attributes":{
						"POSITION":6,
						"NORMAL":7
					},
					"indices":8,
					"material":2
				}
			]
		}
	],
	"accessors":[
		{
			"bufferView":0,
			"componentType":5126,
			"count":6795,
			"max":[
				2.052180528640747,
				4.010048866271973,
				0.523223876953125
			],
			"min":[
				-2.052180528640747,
				-2.19736248254776e-05,
				-0.46938836574554443
			],
			"type":"VEC3"
		},
		{
			"bufferView":1,
			"componentType":5126,
			"count":6795,
			"type":"VEC3"
		},
		{
			"bufferView":2,
			"componentType":5123,
			"count":10728,
			"type":"SCALAR"
		},
		{
			"bufferView":3,
			"componentType":5126,
			"count":182,
			"max":[
				0.3784945011138916,
				3.9997739791870117,
				0.18381072580814362
			],
			"min":[
				-0.3784945011138916,
				3.5118632316589355,
				-0.18381072580814362
			],
			"type":"VEC3"
		},
		{
			"bufferView":4,
			"componentType":5126,
			"count":182,
			"type":"VEC3"
		},
		{
			"bufferView":5,
			"componentType":5123,
			"count":324,
			"type":"SCALAR"
		},
		{
			"bufferView":6,
			"componentType":5126,
			"count":1624,
			"max":[
				2.0078463554382324,
				4.010048866271973,
				0.523223876953125
			],
			"min":[
				-2.0078463554382324,
				-2.19736248254776e-05,
				-0.46938836574554443
			],
			"type":"VEC3"
		},
		{
			"bufferView":7,
			"componentType":5126,
			"count":1624,
			"type":"VEC3"
		},
		{
			"bufferView":8,
			"componentType":5123,
			"count":2400,
			"type":"SCALAR"
		}
	],
	"bufferViews":[
		{
			"buffer":0,
			"byteLength":81540,
			"byteOffset":0,
			"target":34962
		},
		{
			"buffer":0,
			"byteLength":81540,
			"byteOffset":81540,
			"target":34962
		},
		{
			"buffer":0,
			"byteLength":21456,
			"byteOffset":163080,
			"target":34963
		},
		{
			"buffer":0,
			"byteLength":2184,
			"byteOffset":184536,
			"target":34962
		},
		{
			"buffer":0,
			"byteLength":2184,
			"byteOffset":186720,
			"target":34962
		},
		{
			"buffer":0,
			"byteLength":648,
			"byteOffset":188904,
			"target":34963
		},
		{
			"buffer":0,
			"byteLength":19488,
			"byteOffset":189552,
			"target":34962
		},
		{
			"buffer":0,
			"byteLength":19488,
			"byteOffset":209040,
			"target":34962
		},
		{
			"buffer":0,
			"byteLength":4800,
			"byteOffset":228528,
			"target":34963
		}
	],
	"buffers":[
		{
			"byteLength":233328,
			"uri":"Arch-dfa760fd445a36d4b81c944b9a42b450.bin"
		}
	]
}
