{
	"asset":{
		"generator":"Khronos glTF Blender I/O v4.4.56",
		"version":"2.0"
	},
	"scene":0,
	"scenes":[
		{
			"name":"Scene",
			"nodes":[
				0
			]
		}
	],
	"nodes":[
		{
			"mesh":0,
			"name":"Bag_Coins"
		}
	],
	"materials":[
		{
			"doubleSided":true,
			"name":"Bag",
			"pbrMetallicRoughness":{
				"baseColorFactor":[
					0.19598467648029327,
					0.11687294393777847,
					0.07028023153543472,
					1
				],
				"metallicFactor":0,
				"roughnessFactor":0.5
			}
		},
		{
			"doubleSided":true,
			"name":"Gold",
			"pbrMetallicRoughness":{
				"baseColorFactor":[
					0.3672336935997009,
					0.2681660056114197,
					0.11144793778657913,
					1
				],
				"metallicFactor":0,
				"roughnessFactor":0.5
			}
		}
	],
	"meshes":[
		{
			"name":"Cylinder.023",
			"primitives":[
				{
					"attributes":{
						"POSITION":0,
						"NORMAL":1
					},
					"indices":2,
					"material":0
				},
				{
					"attributes":{
						"POSITION":3,
						"NORMAL":4
					},
					"indices":5,
					"material":1
				}
			]
		}
	],
	"accessors":[
		{
			"bufferView":0,
			"componentType":5126,
			"count":848,
			"max":[
				0.1323499232530594,
				0.10312387347221375,
				0.10785246640443802
			],
			"min":[
				-0.15410296618938446,
				-0.011468648910522461,
				-0.10789415240287781
			],
			"type":"VEC3"
		},
		{
			"bufferView":1,
			"componentType":5126,
			"count":848,
			"type":"VEC3"
		},
		{
			"bufferView":2,
			"componentType":5123,
			"count":1272,
			"type":"SCALAR"
		},
		{
			"bufferView":3,
			"componentType":5126,
			"count":864,
			"max":[
				0.2878728210926056,
				0.01230226643383503,
				0.059422072023153305
			],
			"min":[
				0.12168720364570618,
				-0.001126167830079794,
				-0.1143237054347992
			],
			"type":"VEC3"
		},
		{
			"bufferView":4,
			"componentType":5126,
			"count":864,
			"type":"VEC3"
		},
		{
			"bufferView":5,
			"componentType":5123,
			"count":1656,
			"type":"SCALAR"
		}
	],
	"bufferViews":[
		{
			"buffer":0,
			"byteLength":10176,
			"byteOffset":0,
			"target":34962
		},
		{
			"buffer":0,
			"byteLength":10176,
			"byteOffset":10176,
			"target":34962
		},
		{
			"buffer":0,
			"byteLength":2544,
			"byteOffset":20352,
			"target":34963
		},
		{
			"buffer":0,
			"byteLength":10368,
			"byteOffset":22896,
			"target":34962
		},
		{
			"buffer":0,
			"byteLength":10368,
			"byteOffset":33264,
			"target":34962
		},
		{
			"buffer":0,
			"byteLength":3312,
			"byteOffset":43632,
			"target":34963
		}
	],
	"buffers":[
		{
			"byteLength":46944,
			"uri":"Bag_Coins-58a56632a05bcd1b4145bb6ea0f63cdc.bin"
		}
	]
}
