{
	"asset":{
		"generator":"Khronos glTF Blender I/O v4.4.56",
		"version":"2.0"
	},
	"scene":0,
	"scenes":[
		{
			"name":"Scene",
			"nodes":[
				0
			]
		}
	],
	"nodes":[
		{
			"mesh":0,
			"name":"Bag_Standing"
		}
	],
	"materials":[
		{
			"doubleSided":true,
			"name":"Bag",
			"pbrMetallicRoughness":{
				"baseColorFactor":[
					0.19598467648029327,
					0.11687294393777847,
					0.07028023153543472,
					1
				],
				"metallicFactor":0,
				"roughnessFactor":0.5
			}
		},
		{
			"doubleSided":true,
			"name":"Thread",
			"pbrMetallicRoughness":{
				"baseColorFactor":[
					0.04434659332036972,
					0.0462222620844841,
					0.19598467648029327,
					1
				],
				"metallicFactor":0,
				"roughnessFactor":0.5
			}
		}
	],
	"meshes":[
		{
			"name":"Cylinder.022",
			"primitives":[
				{
					"attributes":{
						"POSITION":0,
						"NORMAL":1
					},
					"indices":2,
					"material":0
				},
				{
					"attributes":{
						"POSITION":3,
						"NORMAL":4
					},
					"indices":5,
					"material":1
				}
			]
		}
	],
	"accessors":[
		{
			"bufferView":0,
			"componentType":5126,
			"count":720,
			"max":[
				0.10887569934129715,
				0.24365821480751038,
				0.10496869683265686
			],
			"min":[
				-0.10887569934129715,
				-0.009043979458510876,
				-0.10496869683265686
			],
			"type":"VEC3"
		},
		{
			"bufferView":1,
			"componentType":5126,
			"count":720,
			"type":"VEC3"
		},
		{
			"bufferView":2,
			"componentType":5123,
			"count":1080,
			"type":"SCALAR"
		},
		{
			"bufferView":3,
			"componentType":5126,
			"count":192,
			"max":[
				0.04719275236129761,
				0.22938962280750275,
				0.04340345785021782
			],
			"min":[
				-0.04220936819911003,
				0.21021851897239685,
				-0.04186258092522621
			],
			"type":"VEC3"
		},
		{
			"bufferView":4,
			"componentType":5126,
			"count":192,
			"type":"VEC3"
		},
		{
			"bufferView":5,
			"componentType":5123,
			"count":288,
			"type":"SCALAR"
		}
	],
	"bufferViews":[
		{
			"buffer":0,
			"byteLength":8640,
			"byteOffset":0,
			"target":34962
		},
		{
			"buffer":0,
			"byteLength":8640,
			"byteOffset":8640,
			"target":34962
		},
		{
			"buffer":0,
			"byteLength":2160,
			"byteOffset":17280,
			"target":34963
		},
		{
			"buffer":0,
			"byteLength":2304,
			"byteOffset":19440,
			"target":34962
		},
		{
			"buffer":0,
			"byteLength":2304,
			"byteOffset":21744,
			"target":34962
		},
		{
			"buffer":0,
			"byteLength":576,
			"byteOffset":24048,
			"target":34963
		}
	],
	"buffers":[
		{
			"byteLength":24624,
			"uri":"Bag_Standing-133b4acab5a08bc39839278b23468167.bin"
		}
	]
}
