{
	"asset":{
		"generator":"Khronos glTF Blender I/O v4.4.56",
		"version":"2.0"
	},
	"scene":0,
	"scenes":[
		{
			"name":"Scene",
			"nodes":[
				0
			]
		}
	],
	"nodes":[
		{
			"mesh":0,
			"name":"Banner_wall"
		}
	],
	"materials":[
		{
			"doubleSided":true,
			"name":"Wood",
			"pbrMetallicRoughness":{
				"baseColorFactor":[
					0.20189261436462402,
					0.10397916287183762,
					0.07928955554962158,
					1
				],
				"metallicFactor":0,
				"roughnessFactor":0.5
			}
		},
		{
			"doubleSided":true,
			"name":"Metal",
			"pbrMetallicRoughness":{
				"baseColorFactor":[
					0.07698974758386612,
					0.06832612305879593,
					0.11493299156427383,
					1
				],
				"metallicFactor":0,
				"roughnessFactor":0.5
			}
		},
		{
			"doubleSided":true,
			"name":"Main",
			"pbrMetallicRoughness":{
				"baseColorFactor":[
					0.2018910050392151,
					0.02532052993774414,
					0.019205588847398758,
					1
				],
				"metallicFactor":0,
				"roughnessFactor":0.5
			}
		}
	],
	"meshes":[
		{
			"name":"Cylinder.010",
			"primitives":[
				{
					"attributes":{
						"POSITION":0,
						"NORMAL":1
					},
					"indices":2,
					"material":0
				},
				{
					"attributes":{
						"POSITION":3,
						"NORMAL":4
					},
					"indices":5,
					"material":1
				},
				{
					"attributes":{
						"POSITION":6,
						"NORMAL":7
					},
					"indices":8,
					"material":2
				}
			]
		}
	],
	"accessors":[
		{
			"bufferView":0,
			"componentType":5126,
			"count":206,
			"max":[
				0.4029417037963867,
				0.035279035568237305,
				0.06853972375392914
			],
			"min":[
				-0.34883207082748413,
				-0.03231930732727051,
				-0.5038592219352722
			],
			"type":"VEC3"
		},
		{
			"bufferView":1,
			"componentType":5126,
			"count":206,
			"type":"VEC3"
		},
		{
			"bufferView":2,
			"componentType":5123,
			"count":360,
			"type":"SCALAR"
		},
		{
			"bufferView":3,
			"componentType":5126,
			"count":280,
			"max":[
				0.8471852540969849,
				0.05358147621154785,
				0.08919764310121536
			],
			"min":[
				-0.7930756211280823,
				-0.05062222480773926,
				-0.030174244195222855
			],
			"type":"VEC3"
		},
		{
			"bufferView":4,
			"componentType":5126,
			"count":280,
			"type":"VEC3"
		},
		{
			"bufferView":5,
			"componentType":5123,
			"count":480,
			"type":"SCALAR"
		},
		{
			"bufferView":6,
			"componentType":5126,
			"count":260,
			"max":[
				0.293491393327713,
				0.04252982139587402,
				0.07691182941198349
			],
			"min":[
				-0.2868412733078003,
				-2.793280601501465,
				-0.01788843795657158
			],
			"type":"VEC3"
		},
		{
			"bufferView":7,
			"componentType":5126,
			"count":260,
			"type":"VEC3"
		},
		{
			"bufferView":8,
			"componentType":5123,
			"count":480,
			"type":"SCALAR"
		}
	],
	"bufferViews":[
		{
			"buffer":0,
			"byteLength":2472,
			"byteOffset":0,
			"target":34962
		},
		{
			"buffer":0,
			"byteLength":2472,
			"byteOffset":2472,
			"target":34962
		},
		{
			"buffer":0,
			"byteLength":720,
			"byteOffset":4944,
			"target":34963
		},
		{
			"buffer":0,
			"byteLength":3360,
			"byteOffset":5664,
			"target":34962
		},
		{
			"buffer":0,
			"byteLength":3360,
			"byteOffset":9024,
			"target":34962
		},
		{
			"buffer":0,
			"byteLength":960,
			"byteOffset":12384,
			"target":34963
		},
		{
			"buffer":0,
			"byteLength":3120,
			"byteOffset":13344,
			"target":34962
		},
		{
			"buffer":0,
			"byteLength":3120,
			"byteOffset":16464,
			"target":34962
		},
		{
			"buffer":0,
			"byteLength":960,
			"byteOffset":19584,
			"target":34963
		}
	],
	"buffers":[
		{
			"byteLength":20544,
			"uri":"Banner_wall-57e0dbbe34e8a3ba510b897201683a67.bin"
		}
	]
}
