{
	"asset":{
		"generator":"Khronos glTF Blender I/O v4.4.56",
		"version":"2.0"
	},
	"scene":0,
	"scenes":[
		{
			"name":"Scene",
			"nodes":[
				0
			]
		}
	],
	"nodes":[
		{
			"mesh":0,
			"name":"Banner"
		}
	],
	"materials":[
		{
			"doubleSided":true,
			"name":"Wood",
			"pbrMetallicRoughness":{
				"baseColorFactor":[
					0.20189261436462402,
					0.10397916287183762,
					0.07928955554962158,
					1
				],
				"metallicFactor":0,
				"roughnessFactor":0.5
			}
		},
		{
			"doubleSided":true,
			"name":"Metal",
			"pbrMetallicRoughness":{
				"baseColorFactor":[
					0.07698974758386612,
					0.06832612305879593,
					0.11493299156427383,
					1
				],
				"metallicFactor":0,
				"roughnessFactor":0.5
			}
		},
		{
			"doubleSided":true,
			"name":"Main",
			"pbrMetallicRoughness":{
				"baseColorFactor":[
					0.2018910050392151,
					0.02532052993774414,
					0.019205588847398758,
					1
				],
				"metallicFactor":0,
				"roughnessFactor":0.5
			}
		},
		{
			"doubleSided":true,
			"name":"DarkMetal",
			"pbrMetallicRoughness":{
				"baseColorFactor":[
					0.04549121484160423,
					0.042229779064655304,
					0.0607169046998024,
					1
				],
				"metallicFactor":0,
				"roughnessFactor":0.5
			}
		}
	],
	"meshes":[
		{
			"name":"Cylinder.010",
			"primitives":[
				{
					"attributes":{
						"POSITION":0,
						"NORMAL":1
					},
					"indices":2,
					"material":0
				},
				{
					"attributes":{
						"POSITION":3,
						"NORMAL":4
					},
					"indices":5,
					"material":1
				},
				{
					"attributes":{
						"POSITION":6,
						"NORMAL":7
					},
					"indices":8,
					"material":2
				},
				{
					"attributes":{
						"POSITION":9,
						"NORMAL":10
					},
					"indices":11,
					"material":3
				}
			]
		}
	],
	"accessors":[
		{
			"bufferView":0,
			"componentType":5126,
			"count":246,
			"max":[
				0.7362629175186157,
				3.358415126800537,
				0.06853972375392914
			],
			"min":[
				-0.7362629175186157,
				0.0984114333987236,
				-0.03723563626408577
			],
			"type":"VEC3"
		},
		{
			"bufferView":1,
			"componentType":5126,
			"count":246,
			"type":"VEC3"
		},
		{
			"bufferView":2,
			"componentType":5123,
			"count":408,
			"type":"SCALAR"
		},
		{
			"bufferView":3,
			"componentType":5126,
			"count":452,
			"max":[
				1.1805064678192139,
				3.8022570610046387,
				0.08919764310121536
			],
			"min":[
				-1.1805064678192139,
				0.060541003942489624,
				-0.06737133860588074
			],
			"type":"VEC3"
		},
		{
			"bufferView":4,
			"componentType":5126,
			"count":452,
			"type":"VEC3"
		},
		{
			"bufferView":5,
			"componentType":5123,
			"count":750,
			"type":"SCALAR"
		},
		{
			"bufferView":6,
			"componentType":5126,
			"count":260,
			"max":[
				0.293491393327713,
				3.0845537185668945,
				0.07691182941198349
			],
			"min":[
				-0.2868412733078003,
				0.2487434297800064,
				-0.01788843795657158
			],
			"type":"VEC3"
		},
		{
			"bufferView":7,
			"componentType":5126,
			"count":260,
			"type":"VEC3"
		},
		{
			"bufferView":8,
			"componentType":5123,
			"count":480,
			"type":"SCALAR"
		},
		{
			"bufferView":9,
			"componentType":5126,
			"count":28,
			"max":[
				0.26977840065956116,
				0.060541003942489624,
				0.10964806377887726
			],
			"min":[
				-0.26977840065956116,
				0.003701206063851714,
				-0.10964806377887726
			],
			"type":"VEC3"
		},
		{
			"bufferView":10,
			"componentType":5126,
			"count":28,
			"type":"VEC3"
		},
		{
			"bufferView":11,
			"componentType":5123,
			"count":54,
			"type":"SCALAR"
		}
	],
	"bufferViews":[
		{
			"buffer":0,
			"byteLength":2952,
			"byteOffset":0,
			"target":34962
		},
		{
			"buffer":0,
			"byteLength":2952,
			"byteOffset":2952,
			"target":34962
		},
		{
			"buffer":0,
			"byteLength":816,
			"byteOffset":5904,
			"target":34963
		},
		{
			"buffer":0,
			"byteLength":5424,
			"byteOffset":6720,
			"target":34962
		},
		{
			"buffer":0,
			"byteLength":5424,
			"byteOffset":12144,
			"target":34962
		},
		{
			"buffer":0,
			"byteLength":1500,
			"byteOffset":17568,
			"target":34963
		},
		{
			"buffer":0,
			"byteLength":3120,
			"byteOffset":19068,
			"target":34962
		},
		{
			"buffer":0,
			"byteLength":3120,
			"byteOffset":22188,
			"target":34962
		},
		{
			"buffer":0,
			"byteLength":960,
			"byteOffset":25308,
			"target":34963
		},
		{
			"buffer":0,
			"byteLength":336,
			"byteOffset":26268,
			"target":34962
		},
		{
			"buffer":0,
			"byteLength":336,
			"byteOffset":26604,
			"target":34962
		},
		{
			"buffer":0,
			"byteLength":108,
			"byteOffset":26940,
			"target":34963
		}
	],
	"buffers":[
		{
			"byteLength":27048,
			"uri":"Banner-8be20332fe8310ba7e7dfc100ec200bb.bin"
		}
	]
}
