{
	"asset":{
		"generator":"Khronos glTF Blender I/O v4.4.56",
		"version":"2.0"
	},
	"scene":0,
	"scenes":[
		{
			"name":"Scene",
			"nodes":[
				0
			]
		}
	],
	"nodes":[
		{
			"mesh":0,
			"name":"Barrel"
		}
	],
	"materials":[
		{
			"doubleSided":true,
			"name":"Wood",
			"pbrMetallicRoughness":{
				"baseColorFactor":[
					0.20189261436462402,
					0.10397916287183762,
					0.07928955554962158,
					1
				],
				"metallicFactor":0,
				"roughnessFactor":0.5
			}
		},
		{
			"doubleSided":true,
			"name":"DarkWood",
			"pbrMetallicRoughness":{
				"baseColorFactor":[
					0.11927328258752823,
					0.0632803663611412,
					0.05076603218913078,
					1
				],
				"metallicFactor":0,
				"roughnessFactor":0.5
			}
		}
	],
	"meshes":[
		{
			"name":"Cylinder.029",
			"primitives":[
				{
					"attributes":{
						"POSITION":0,
						"NORMAL":1
					},
					"indices":2,
					"material":0
				},
				{
					"attributes":{
						"POSITION":3,
						"NORMAL":4
					},
					"indices":5,
					"material":1
				}
			]
		}
	],
	"accessors":[
		{
			"bufferView":0,
			"componentType":5126,
			"count":1362,
			"max":[
				0.5096333026885986,
				1.3523533344268799,
				0.5138643383979797
			],
			"min":[
				-0.518180787563324,
				0.013070020824670792,
				-0.5025268793106079
			],
			"type":"VEC3"
		},
		{
			"bufferView":1,
			"componentType":5126,
			"count":1362,
			"type":"VEC3"
		},
		{
			"bufferView":2,
			"componentType":5123,
			"count":2136,
			"type":"SCALAR"
		},
		{
			"bufferView":3,
			"componentType":5126,
			"count":718,
			"max":[
				0.4908027648925781,
				1.3520370721817017,
				0.48023363947868347
			],
			"min":[
				-0.4908027648925781,
				0.005742260254919529,
				-0.48023363947868347
			],
			"type":"VEC3"
		},
		{
			"bufferView":4,
			"componentType":5126,
			"count":718,
			"type":"VEC3"
		},
		{
			"bufferView":5,
			"componentType":5123,
			"count":1128,
			"type":"SCALAR"
		}
	],
	"bufferViews":[
		{
			"buffer":0,
			"byteLength":16344,
			"byteOffset":0,
			"target":34962
		},
		{
			"buffer":0,
			"byteLength":16344,
			"byteOffset":16344,
			"target":34962
		},
		{
			"buffer":0,
			"byteLength":4272,
			"byteOffset":32688,
			"target":34963
		},
		{
			"buffer":0,
			"byteLength":8616,
			"byteOffset":36960,
			"target":34962
		},
		{
			"buffer":0,
			"byteLength":8616,
			"byteOffset":45576,
			"target":34962
		},
		{
			"buffer":0,
			"byteLength":2256,
			"byteOffset":54192,
			"target":34963
		}
	],
	"buffers":[
		{
			"byteLength":56448,
			"uri":"Barrel2-0c99e7664b32899652cf5bd1cbbe6098.bin"
		}
	]
}
