{
	"asset":{
		"generator":"Khronos glTF Blender I/O v4.4.56",
		"version":"2.0"
	},
	"scene":0,
	"scenes":[
		{
			"name":"Scene",
			"nodes":[
				0
			]
		}
	],
	"nodes":[
		{
			"mesh":0,
			"name":"Barrel"
		}
	],
	"materials":[
		{
			"doubleSided":true,
			"name":"Wood",
			"pbrMetallicRoughness":{
				"baseColorFactor":[
					0.20189261436462402,
					0.10397916287183762,
					0.07928955554962158,
					1
				],
				"metallicFactor":0,
				"roughnessFactor":0.5
			}
		},
		{
			"doubleSided":true,
			"name":"Metal",
			"pbrMetallicRoughness":{
				"baseColorFactor":[
					0.07698974758386612,
					0.06832612305879593,
					0.11493299156427383,
					1
				],
				"metallicFactor":0,
				"roughnessFactor":0.5
			}
		},
		{
			"doubleSided":true,
			"name":"DarkWood",
			"pbrMetallicRoughness":{
				"baseColorFactor":[
					0.11927328258752823,
					0.0632803663611412,
					0.05076603218913078,
					1
				],
				"metallicFactor":0,
				"roughnessFactor":0.5
			}
		}
	],
	"meshes":[
		{
			"name":"Cylinder.015",
			"primitives":[
				{
					"attributes":{
						"POSITION":0,
						"NORMAL":1
					},
					"indices":2,
					"material":0
				},
				{
					"attributes":{
						"POSITION":3,
						"NORMAL":4
					},
					"indices":5,
					"material":1
				},
				{
					"attributes":{
						"POSITION":6,
						"NORMAL":7
					},
					"indices":8,
					"material":2
				}
			]
		}
	],
	"accessors":[
		{
			"bufferView":0,
			"componentType":5126,
			"count":1362,
			"max":[
				0.521312415599823,
				1.3523533344268799,
				0.5149883031845093
			],
			"min":[
				-0.521312415599823,
				0.013070020824670792,
				-0.5185719132423401
			],
			"type":"VEC3"
		},
		{
			"bufferView":1,
			"componentType":5126,
			"count":1362,
			"type":"VEC3"
		},
		{
			"bufferView":2,
			"componentType":5123,
			"count":2136,
			"type":"SCALAR"
		},
		{
			"bufferView":3,
			"componentType":5126,
			"count":480,
			"max":[
				0.49433138966560364,
				1.327797770500183,
				0.48563867807388306
			],
			"min":[
				-0.49433138966560364,
				0.026223203167319298,
				-0.48563873767852783
			],
			"type":"VEC3"
		},
		{
			"bufferView":4,
			"componentType":5126,
			"count":480,
			"type":"VEC3"
		},
		{
			"bufferView":5,
			"componentType":5123,
			"count":888,
			"type":"SCALAR"
		},
		{
			"bufferView":6,
			"componentType":5126,
			"count":718,
			"max":[
				0.49021196365356445,
				1.3520370721817017,
				0.48159170150756836
			],
			"min":[
				-0.49021196365356445,
				0.005742260254919529,
				-0.48159170150756836
			],
			"type":"VEC3"
		},
		{
			"bufferView":7,
			"componentType":5126,
			"count":718,
			"type":"VEC3"
		},
		{
			"bufferView":8,
			"componentType":5123,
			"count":1128,
			"type":"SCALAR"
		}
	],
	"bufferViews":[
		{
			"buffer":0,
			"byteLength":16344,
			"byteOffset":0,
			"target":34962
		},
		{
			"buffer":0,
			"byteLength":16344,
			"byteOffset":16344,
			"target":34962
		},
		{
			"buffer":0,
			"byteLength":4272,
			"byteOffset":32688,
			"target":34963
		},
		{
			"buffer":0,
			"byteLength":5760,
			"byteOffset":36960,
			"target":34962
		},
		{
			"buffer":0,
			"byteLength":5760,
			"byteOffset":42720,
			"target":34962
		},
		{
			"buffer":0,
			"byteLength":1776,
			"byteOffset":48480,
			"target":34963
		},
		{
			"buffer":0,
			"byteLength":8616,
			"byteOffset":50256,
			"target":34962
		},
		{
			"buffer":0,
			"byteLength":8616,
			"byteOffset":58872,
			"target":34962
		},
		{
			"buffer":0,
			"byteLength":2256,
			"byteOffset":67488,
			"target":34963
		}
	],
	"buffers":[
		{
			"byteLength":69744,
			"uri":"Barrel-ae3658c248b98bbfc1647b25de2d7188.bin"
		}
	]
}
