{
	"asset":{
		"generator":"Khronos glTF Blender I/O v4.4.56",
		"version":"2.0"
	},
	"scene":0,
	"scenes":[
		{
			"name":"Scene",
			"nodes":[
				0
			]
		}
	],
	"nodes":[
		{
			"mesh":0,
			"name":"Bucket"
		}
	],
	"materials":[
		{
			"doubleSided":true,
			"name":"Wood",
			"pbrMetallicRoughness":{
				"baseColorFactor":[
					0.20189261436462402,
					0.10397916287183762,
					0.07928955554962158,
					1
				],
				"metallicFactor":0,
				"roughnessFactor":0.5
			}
		},
		{
			"doubleSided":true,
			"name":"DarkMetal",
			"pbrMetallicRoughness":{
				"baseColorFactor":[
					0.041473258286714554,
					0.03704424947500229,
					0.060716427862644196,
					1
				],
				"metallicFactor":0,
				"roughnessFactor":0.5
			}
		},
		{
			"doubleSided":true,
			"name":"Metal",
			"pbrMetallicRoughness":{
				"baseColorFactor":[
					0.07698974758386612,
					0.06832612305879593,
					0.11493299156427383,
					1
				],
				"metallicFactor":0,
				"roughnessFactor":0.5
			}
		}
	],
	"meshes":[
		{
			"name":"Cylinder.049",
			"primitives":[
				{
					"attributes":{
						"POSITION":0,
						"NORMAL":1
					},
					"indices":2,
					"material":0
				},
				{
					"attributes":{
						"POSITION":3,
						"NORMAL":4
					},
					"indices":5,
					"material":1
				},
				{
					"attributes":{
						"POSITION":6,
						"NORMAL":7
					},
					"indices":8,
					"material":2
				}
			]
		}
	],
	"accessors":[
		{
			"bufferView":0,
			"componentType":5126,
			"count":304,
			"max":[
				0.1890878975391388,
				0.3523203730583191,
				0.1890878975391388
			],
			"min":[
				-0.1890878975391388,
				0.0011914741480723023,
				-0.1890878975391388
			],
			"type":"VEC3"
		},
		{
			"bufferView":1,
			"componentType":5126,
			"count":304,
			"type":"VEC3"
		},
		{
			"bufferView":2,
			"componentType":5123,
			"count":468,
			"type":"SCALAR"
		},
		{
			"bufferView":3,
			"componentType":5126,
			"count":192,
			"max":[
				0.18716275691986084,
				0.2735503017902374,
				0.18716275691986084
			],
			"min":[
				-0.18716275691986084,
				0.028681276366114616,
				-0.18716275691986084
			],
			"type":"VEC3"
		},
		{
			"bufferView":4,
			"componentType":5126,
			"count":192,
			"type":"VEC3"
		},
		{
			"bufferView":5,
			"componentType":5123,
			"count":288,
			"type":"SCALAR"
		},
		{
			"bufferView":6,
			"componentType":5126,
			"count":212,
			"max":[
				0.01282405573874712,
				0.5305734872817993,
				0.20218013226985931
			],
			"min":[
				-0.01281398069113493,
				0.23994986712932587,
				-0.20195844769477844
			],
			"type":"VEC3"
		},
		{
			"bufferView":7,
			"componentType":5126,
			"count":212,
			"type":"VEC3"
		},
		{
			"bufferView":8,
			"componentType":5123,
			"count":324,
			"type":"SCALAR"
		}
	],
	"bufferViews":[
		{
			"buffer":0,
			"byteLength":3648,
			"byteOffset":0,
			"target":34962
		},
		{
			"buffer":0,
			"byteLength":3648,
			"byteOffset":3648,
			"target":34962
		},
		{
			"buffer":0,
			"byteLength":936,
			"byteOffset":7296,
			"target":34963
		},
		{
			"buffer":0,
			"byteLength":2304,
			"byteOffset":8232,
			"target":34962
		},
		{
			"buffer":0,
			"byteLength":2304,
			"byteOffset":10536,
			"target":34962
		},
		{
			"buffer":0,
			"byteLength":576,
			"byteOffset":12840,
			"target":34963
		},
		{
			"buffer":0,
			"byteLength":2544,
			"byteOffset":13416,
			"target":34962
		},
		{
			"buffer":0,
			"byteLength":2544,
			"byteOffset":15960,
			"target":34962
		},
		{
			"buffer":0,
			"byteLength":648,
			"byteOffset":18504,
			"target":34963
		}
	],
	"buffers":[
		{
			"byteLength":19152,
			"uri":"Bucket-94b09f4e2c4c802dbd7876e908800fe3.bin"
		}
	]
}
