{
	"asset":{
		"generator":"Khronos glTF Blender I/O v4.4.56",
		"version":"2.0"
	},
	"scene":0,
	"scenes":[
		{
			"name":"Scene",
			"nodes":[
				0
			]
		}
	],
	"nodes":[
		{
			"mesh":0,
			"name":"Chair"
		}
	],
	"materials":[
		{
			"doubleSided":true,
			"name":"Wood",
			"pbrMetallicRoughness":{
				"baseColorFactor":[
					0.20189261436462402,
					0.10397916287183762,
					0.07928955554962158,
					1
				],
				"metallicFactor":0,
				"roughnessFactor":0.5
			}
		},
		{
			"doubleSided":true,
			"name":"Main",
			"pbrMetallicRoughness":{
				"baseColorFactor":[
					0.2018910050392151,
					0.02532052993774414,
					0.019205588847398758,
					1
				],
				"metallicFactor":0,
				"roughnessFactor":0.5
			}
		},
		{
			"doubleSided":true,
			"name":"DarkWood",
			"pbrMetallicRoughness":{
				"baseColorFactor":[
					0.11927328258752823,
					0.0632803663611412,
					0.05076603218913078,
					1
				],
				"metallicFactor":0,
				"roughnessFactor":0.5
			}
		}
	],
	"meshes":[
		{
			"name":"Cube.027",
			"primitives":[
				{
					"attributes":{
						"POSITION":0,
						"NORMAL":1
					},
					"indices":2,
					"material":0
				},
				{
					"attributes":{
						"POSITION":3,
						"NORMAL":4
					},
					"indices":5,
					"material":1
				},
				{
					"attributes":{
						"POSITION":6,
						"NORMAL":7
					},
					"indices":8,
					"material":2
				}
			]
		}
	],
	"accessors":[
		{
			"bufferView":0,
			"componentType":5126,
			"count":1592,
			"max":[
				0.30683350563049316,
				1.1626205444335938,
				0.3364619314670563
			],
			"min":[
				-0.30683350563049316,
				0.07892792671918869,
				-0.3602434992790222
			],
			"type":"VEC3"
		},
		{
			"bufferView":1,
			"componentType":5126,
			"count":1592,
			"type":"VEC3"
		},
		{
			"bufferView":2,
			"componentType":5123,
			"count":2910,
			"type":"SCALAR"
		},
		{
			"bufferView":3,
			"componentType":5126,
			"count":93,
			"max":[
				0.23341089487075806,
				0.44625750184059143,
				0.2789222300052643
			],
			"min":[
				-0.23341089487075806,
				0.388088583946228,
				-0.27892225980758667
			],
			"type":"VEC3"
		},
		{
			"bufferView":4,
			"componentType":5126,
			"count":93,
			"type":"VEC3"
		},
		{
			"bufferView":5,
			"componentType":5123,
			"count":180,
			"type":"SCALAR"
		},
		{
			"bufferView":6,
			"componentType":5126,
			"count":392,
			"max":[
				0.31349897384643555,
				0.6608969569206238,
				0.3421955108642578
			],
			"min":[
				-0.31349897384643555,
				0.0036767427809536457,
				-0.3421955108642578
			],
			"type":"VEC3"
		},
		{
			"bufferView":7,
			"componentType":5126,
			"count":392,
			"type":"VEC3"
		},
		{
			"bufferView":8,
			"componentType":5123,
			"count":804,
			"type":"SCALAR"
		}
	],
	"bufferViews":[
		{
			"buffer":0,
			"byteLength":19104,
			"byteOffset":0,
			"target":34962
		},
		{
			"buffer":0,
			"byteLength":19104,
			"byteOffset":19104,
			"target":34962
		},
		{
			"buffer":0,
			"byteLength":5820,
			"byteOffset":38208,
			"target":34963
		},
		{
			"buffer":0,
			"byteLength":1116,
			"byteOffset":44028,
			"target":34962
		},
		{
			"buffer":0,
			"byteLength":1116,
			"byteOffset":45144,
			"target":34962
		},
		{
			"buffer":0,
			"byteLength":360,
			"byteOffset":46260,
			"target":34963
		},
		{
			"buffer":0,
			"byteLength":4704,
			"byteOffset":46620,
			"target":34962
		},
		{
			"buffer":0,
			"byteLength":4704,
			"byteOffset":51324,
			"target":34962
		},
		{
			"buffer":0,
			"byteLength":1608,
			"byteOffset":56028,
			"target":34963
		}
	],
	"buffers":[
		{
			"byteLength":57636,
			"uri":"Chair-a79a0d1e6057afd2b487af55dedf2bc8.bin"
		}
	]
}
