{
	"asset":{
		"generator":"Khronos glTF Blender I/O v4.4.56",
		"version":"2.0"
	},
	"scene":0,
	"scenes":[
		{
			"name":"Scene",
			"nodes":[
				0,
				1
			]
		}
	],
	"nodes":[
		{
			"mesh":0,
			"name":"Chest_Base"
		},
		{
			"mesh":1,
			"name":"Chest_Top",
			"translation":[
				-0.0006084394408389926,
				0.5249122381210327,
				-0.35301926732063293
			]
		}
	],
	"materials":[
		{
			"doubleSided":true,
			"name":"DarkWood",
			"pbrMetallicRoughness":{
				"baseColorFactor":[
					0.11927328258752823,
					0.0632803663611412,
					0.05076603218913078,
					1
				],
				"metallicFactor":0,
				"roughnessFactor":0.5
			}
		},
		{
			"doubleSided":true,
			"name":"Wood",
			"pbrMetallicRoughness":{
				"baseColorFactor":[
					0.20189261436462402,
					0.10397916287183762,
					0.07928955554962158,
					1
				],
				"metallicFactor":0,
				"roughnessFactor":0.5
			}
		},
		{
			"doubleSided":true,
			"name":"Metal",
			"pbrMetallicRoughness":{
				"baseColorFactor":[
					0.07698974758386612,
					0.06832612305879593,
					0.11493299156427383,
					1
				],
				"metallicFactor":0,
				"roughnessFactor":0.5
			}
		}
	],
	"meshes":[
		{
			"name":"Cube",
			"primitives":[
				{
					"attributes":{
						"POSITION":0,
						"NORMAL":1
					},
					"indices":2,
					"material":0
				},
				{
					"attributes":{
						"POSITION":3,
						"NORMAL":4
					},
					"indices":5,
					"material":1
				},
				{
					"attributes":{
						"POSITION":6,
						"NORMAL":7
					},
					"indices":8,
					"material":2
				}
			]
		},
		{
			"name":"Cylinder.007",
			"primitives":[
				{
					"attributes":{
						"POSITION":9,
						"NORMAL":10
					},
					"indices":11,
					"material":0
				},
				{
					"attributes":{
						"POSITION":12,
						"NORMAL":13
					},
					"indices":14,
					"material":1
				}
			]
		}
	],
	"accessors":[
		{
			"bufferView":0,
			"componentType":5126,
			"count":578,
			"max":[
				0.5683982372283936,
				0.5370563864707947,
				0.386610746383667
			],
			"min":[
				-0.5741599202156067,
				-0.001326166559010744,
				-0.386610746383667
			],
			"type":"VEC3"
		},
		{
			"bufferView":1,
			"componentType":5126,
			"count":578,
			"type":"VEC3"
		},
		{
			"bufferView":2,
			"componentType":5123,
			"count":1032,
			"type":"SCALAR"
		},
		{
			"bufferView":3,
			"componentType":5126,
			"count":622,
			"max":[
				0.5357401967048645,
				0.4913301467895508,
				0.3644779324531555
			],
			"min":[
				-0.5503619909286499,
				0.060545142740011215,
				-0.37427136301994324
			],
			"type":"VEC3"
		},
		{
			"bufferView":4,
			"componentType":5126,
			"count":622,
			"type":"VEC3"
		},
		{
			"bufferView":5,
			"componentType":5123,
			"count":1080,
			"type":"SCALAR"
		},
		{
			"bufferView":6,
			"componentType":5126,
			"count":146,
			"max":[
				0.06789093464612961,
				0.5722053647041321,
				0.4333212971687317
			],
			"min":[
				-0.054309360682964325,
				0.40230292081832886,
				0.3461928367614746
			],
			"type":"VEC3"
		},
		{
			"bufferView":7,
			"componentType":5126,
			"count":146,
			"type":"VEC3"
		},
		{
			"bufferView":8,
			"componentType":5123,
			"count":276,
			"type":"SCALAR"
		},
		{
			"bufferView":9,
			"componentType":5126,
			"count":532,
			"max":[
				0.5896589159965515,
				0.37225812673568726,
				0.7454005479812622
			],
			"min":[
				-0.5896589756011963,
				-8.059222267320365e-08,
				-0.037430040538311005
			],
			"type":"VEC3"
		},
		{
			"bufferView":10,
			"componentType":5126,
			"count":532,
			"type":"VEC3"
		},
		{
			"bufferView":11,
			"componentType":5123,
			"count":948,
			"type":"SCALAR"
		},
		{
			"bufferView":12,
			"componentType":5126,
			"count":914,
			"max":[
				0.5628063082695007,
				0.3530072271823883,
				0.698881983757019
			],
			"min":[
				-0.5628063678741455,
				0.02623671106994152,
				0.009088565595448017
			],
			"type":"VEC3"
		},
		{
			"bufferView":13,
			"componentType":5126,
			"count":914,
			"type":"VEC3"
		},
		{
			"bufferView":14,
			"componentType":5123,
			"count":1692,
			"type":"SCALAR"
		}
	],
	"bufferViews":[
		{
			"buffer":0,
			"byteLength":6936,
			"byteOffset":0,
			"target":34962
		},
		{
			"buffer":0,
			"byteLength":6936,
			"byteOffset":6936,
			"target":34962
		},
		{
			"buffer":0,
			"byteLength":2064,
			"byteOffset":13872,
			"target":34963
		},
		{
			"buffer":0,
			"byteLength":7464,
			"byteOffset":15936,
			"target":34962
		},
		{
			"buffer":0,
			"byteLength":7464,
			"byteOffset":23400,
			"target":34962
		},
		{
			"buffer":0,
			"byteLength":2160,
			"byteOffset":30864,
			"target":34963
		},
		{
			"buffer":0,
			"byteLength":1752,
			"byteOffset":33024,
			"target":34962
		},
		{
			"buffer":0,
			"byteLength":1752,
			"byteOffset":34776,
			"target":34962
		},
		{
			"buffer":0,
			"byteLength":552,
			"byteOffset":36528,
			"target":34963
		},
		{
			"buffer":0,
			"byteLength":6384,
			"byteOffset":37080,
			"target":34962
		},
		{
			"buffer":0,
			"byteLength":6384,
			"byteOffset":43464,
			"target":34962
		},
		{
			"buffer":0,
			"byteLength":1896,
			"byteOffset":49848,
			"target":34963
		},
		{
			"buffer":0,
			"byteLength":10968,
			"byteOffset":51744,
			"target":34962
		},
		{
			"buffer":0,
			"byteLength":10968,
			"byteOffset":62712,
			"target":34962
		},
		{
			"buffer":0,
			"byteLength":3384,
			"byteOffset":73680,
			"target":34963
		}
	],
	"buffers":[
		{
			"byteLength":77064,
			"uri":"Chest-32c34cc9abd944c8bc5b46ad73638ebd.bin"
		}
	]
}
