{
	"asset":{
		"generator":"Khronos glTF Blender I/O v4.4.56",
		"version":"2.0"
	},
	"scene":0,
	"scenes":[
		{
			"name":"Scene",
			"nodes":[
				0
			]
		}
	],
	"nodes":[
		{
			"mesh":0,
			"name":"Cobweb2"
		}
	],
	"materials":[
		{
			"doubleSided":true,
			"name":"Cobweb",
			"pbrMetallicRoughness":{
				"baseColorFactor":[
					0.8970872163772583,
					0.8970872163772583,
					0.8970872163772583,
					1
				],
				"metallicFactor":0,
				"roughnessFactor":0.5
			}
		}
	],
	"meshes":[
		{
			"name":"Cylinder",
			"primitives":[
				{
					"attributes":{
						"POSITION":0,
						"NORMAL":1
					},
					"indices":2,
					"material":0
				}
			]
		}
	],
	"accessors":[
		{
			"bufferView":0,
			"componentType":5126,
			"count":1736,
			"max":[
				0.730263352394104,
				0.8294966220855713,
				0.959632158279419
			],
			"min":[
				-0.6089264154434204,
				-0.015589633025228977,
				-0.07042723149061203
			],
			"type":"VEC3"
		},
		{
			"bufferView":1,
			"componentType":5126,
			"count":1736,
			"type":"VEC3"
		},
		{
			"bufferView":2,
			"componentType":5123,
			"count":2604,
			"type":"SCALAR"
		}
	],
	"bufferViews":[
		{
			"buffer":0,
			"byteLength":20832,
			"byteOffset":0,
			"target":34962
		},
		{
			"buffer":0,
			"byteLength":20832,
			"byteOffset":20832,
			"target":34962
		},
		{
			"buffer":0,
			"byteLength":5208,
			"byteOffset":41664,
			"target":34963
		}
	],
	"buffers":[
		{
			"byteLength":46872,
			"uri":"Cobweb2-cce0992812d769f473c13988a96371be.bin"
		}
	]
}
