{
	"asset":{
		"generator":"Khronos glTF Blender I/O v4.4.56",
		"version":"2.0"
	},
	"scene":0,
	"scenes":[
		{
			"name":"Scene",
			"nodes":[
				0
			]
		}
	],
	"nodes":[
		{
			"mesh":0,
			"name":"Coin_Pile"
		}
	],
	"materials":[
		{
			"doubleSided":true,
			"name":"Gold",
			"pbrMetallicRoughness":{
				"baseColorFactor":[
					0.3672336935997009,
					0.2681660056114197,
					0.11144793778657913,
					1
				],
				"metallicFactor":0,
				"roughnessFactor":0.5
			}
		}
	],
	"meshes":[
		{
			"name":"Cylinder.045",
			"primitives":[
				{
					"attributes":{
						"POSITION":0,
						"NORMAL":1
					},
					"indices":2,
					"material":0
				}
			]
		}
	],
	"accessors":[
		{
			"bufferView":0,
			"componentType":5126,
			"count":5040,
			"max":[
				0.06905383616685867,
				0.09404730051755905,
				0.07634534686803818
			],
			"min":[
				-0.06733493506908417,
				-0.0005933472421020269,
				-0.05910361558198929
			],
			"type":"VEC3"
		},
		{
			"bufferView":1,
			"componentType":5126,
			"count":5040,
			"type":"VEC3"
		},
		{
			"bufferView":2,
			"componentType":5123,
			"count":9660,
			"type":"SCALAR"
		}
	],
	"bufferViews":[
		{
			"buffer":0,
			"byteLength":60480,
			"byteOffset":0,
			"target":34962
		},
		{
			"buffer":0,
			"byteLength":60480,
			"byteOffset":60480,
			"target":34962
		},
		{
			"buffer":0,
			"byteLength":19320,
			"byteOffset":120960,
			"target":34963
		}
	],
	"buffers":[
		{
			"byteLength":140280,
			"uri":"Coin_Pile-519d640000565160b0d1eda169df2997.bin"
		}
	]
}
