{
	"asset":{
		"generator":"Khronos glTF Blender I/O v4.4.56",
		"version":"2.0"
	},
	"scene":0,
	"scenes":[
		{
			"name":"Scene",
			"nodes":[
				0
			]
		}
	],
	"nodes":[
		{
			"mesh":0,
			"name":"Column"
		}
	],
	"materials":[
		{
			"doubleSided":true,
			"name":"Grey_Floor",
			"pbrMetallicRoughness":{
				"baseColorFactor":[
					0.07406579703092575,
					0.07146592438220978,
					0.10246681421995163,
					1
				],
				"metallicFactor":0,
				"roughnessFactor":0.5
			}
		},
		{
			"doubleSided":true,
			"name":"DarkGrey_Floor",
			"pbrMetallicRoughness":{
				"baseColorFactor":[
					0.04549121484160423,
					0.042229779064655304,
					0.0607169046998024,
					1
				],
				"metallicFactor":0,
				"roughnessFactor":0.5
			}
		}
	],
	"meshes":[
		{
			"name":"Cube.083",
			"primitives":[
				{
					"attributes":{
						"POSITION":0,
						"NORMAL":1
					},
					"indices":2,
					"material":0
				},
				{
					"attributes":{
						"POSITION":3,
						"NORMAL":4
					},
					"indices":5,
					"material":1
				}
			]
		}
	],
	"accessors":[
		{
			"bufferView":0,
			"componentType":5126,
			"count":532,
			"max":[
				0.6520595550537109,
				3.7532360553741455,
				0.6520595550537109
			],
			"min":[
				-0.6520595550537109,
				0.008335916325449944,
				-0.6520595550537109
			],
			"type":"VEC3"
		},
		{
			"bufferView":1,
			"componentType":5126,
			"count":532,
			"type":"VEC3"
		},
		{
			"bufferView":2,
			"componentType":5123,
			"count":918,
			"type":"SCALAR"
		},
		{
			"bufferView":3,
			"componentType":5126,
			"count":232,
			"max":[
				0.5636011958122253,
				4.073400974273682,
				0.5636011958122253
			],
			"min":[
				-0.5636011958122253,
				0.29063087701797485,
				-0.5636011958122253
			],
			"type":"VEC3"
		},
		{
			"bufferView":4,
			"componentType":5126,
			"count":232,
			"type":"VEC3"
		},
		{
			"bufferView":5,
			"componentType":5123,
			"count":402,
			"type":"SCALAR"
		}
	],
	"bufferViews":[
		{
			"buffer":0,
			"byteLength":6384,
			"byteOffset":0,
			"target":34962
		},
		{
			"buffer":0,
			"byteLength":6384,
			"byteOffset":6384,
			"target":34962
		},
		{
			"buffer":0,
			"byteLength":1836,
			"byteOffset":12768,
			"target":34963
		},
		{
			"buffer":0,
			"byteLength":2784,
			"byteOffset":14604,
			"target":34962
		},
		{
			"buffer":0,
			"byteLength":2784,
			"byteOffset":17388,
			"target":34962
		},
		{
			"buffer":0,
			"byteLength":804,
			"byteOffset":20172,
			"target":34963
		}
	],
	"buffers":[
		{
			"byteLength":20976,
			"uri":"Column-8837f299cadf94cd5d2a4e6244f2fc25.bin"
		}
	]
}
