{
	"asset":{
		"generator":"Khronos glTF Blender I/O v4.4.56",
		"version":"2.0"
	},
	"scene":0,
	"scenes":[
		{
			"name":"Scene",
			"nodes":[
				0
			]
		}
	],
	"nodes":[
		{
			"mesh":0,
			"name":"Column2"
		}
	],
	"materials":[
		{
			"doubleSided":true,
			"name":"Grey_Floor",
			"pbrMetallicRoughness":{
				"baseColorFactor":[
					0.07406579703092575,
					0.07146592438220978,
					0.10246681421995163,
					1
				],
				"metallicFactor":0,
				"roughnessFactor":0.5
			}
		},
		{
			"doubleSided":true,
			"name":"DarkGrey_Floor",
			"pbrMetallicRoughness":{
				"baseColorFactor":[
					0.04549121484160423,
					0.042229779064655304,
					0.0607169046998024,
					1
				],
				"metallicFactor":0,
				"roughnessFactor":0.5
			}
		}
	],
	"meshes":[
		{
			"name":"Cube.081",
			"primitives":[
				{
					"attributes":{
						"POSITION":0,
						"NORMAL":1
					},
					"indices":2,
					"material":0
				},
				{
					"attributes":{
						"POSITION":3,
						"NORMAL":4
					},
					"indices":5,
					"material":1
				}
			]
		}
	],
	"accessors":[
		{
			"bufferView":0,
			"componentType":5126,
			"count":732,
			"max":[
				0.6520595550537109,
				4.080592632293701,
				0.6520595550537109
			],
			"min":[
				-0.6520595550537109,
				0.008335916325449944,
				-0.6520595550537109
			],
			"type":"VEC3"
		},
		{
			"bufferView":1,
			"componentType":5126,
			"count":732,
			"type":"VEC3"
		},
		{
			"bufferView":2,
			"componentType":5123,
			"count":1320,
			"type":"SCALAR"
		},
		{
			"bufferView":3,
			"componentType":5126,
			"count":160,
			"max":[
				0.5407266020774841,
				3.798297882080078,
				0.5407266020774841
			],
			"min":[
				-0.5407273173332214,
				0.29063087701797485,
				-0.5407267212867737
			],
			"type":"VEC3"
		},
		{
			"bufferView":4,
			"componentType":5126,
			"count":160,
			"type":"VEC3"
		},
		{
			"bufferView":5,
			"componentType":5123,
			"count":324,
			"type":"SCALAR"
		}
	],
	"bufferViews":[
		{
			"buffer":0,
			"byteLength":8784,
			"byteOffset":0,
			"target":34962
		},
		{
			"buffer":0,
			"byteLength":8784,
			"byteOffset":8784,
			"target":34962
		},
		{
			"buffer":0,
			"byteLength":2640,
			"byteOffset":17568,
			"target":34963
		},
		{
			"buffer":0,
			"byteLength":1920,
			"byteOffset":20208,
			"target":34962
		},
		{
			"buffer":0,
			"byteLength":1920,
			"byteOffset":22128,
			"target":34962
		},
		{
			"buffer":0,
			"byteLength":648,
			"byteOffset":24048,
			"target":34963
		}
	],
	"buffers":[
		{
			"byteLength":24696,
			"uri":"Column2-fe55b78b8b7b5eeb7ec0a0cd192d12fb.bin"
		}
	]
}
