{
	"asset":{
		"generator":"Khronos glTF Blender I/O v4.4.56",
		"version":"2.0"
	},
	"scene":0,
	"scenes":[
		{
			"name":"Scene",
			"nodes":[
				0
			]
		}
	],
	"nodes":[
		{
			"mesh":0,
			"name":"Crate"
		}
	],
	"materials":[
		{
			"doubleSided":true,
			"name":"Wood",
			"pbrMetallicRoughness":{
				"baseColorFactor":[
					0.20189261436462402,
					0.10397916287183762,
					0.07928955554962158,
					1
				],
				"metallicFactor":0,
				"roughnessFactor":0.5
			}
		},
		{
			"doubleSided":true,
			"name":"DarkWood",
			"pbrMetallicRoughness":{
				"baseColorFactor":[
					0.11927328258752823,
					0.0632803663611412,
					0.05076603218913078,
					1
				],
				"metallicFactor":0,
				"roughnessFactor":0.5
			}
		}
	],
	"meshes":[
		{
			"name":"Cube.007",
			"primitives":[
				{
					"attributes":{
						"POSITION":0,
						"NORMAL":1
					},
					"indices":2,
					"material":0
				},
				{
					"attributes":{
						"POSITION":3,
						"NORMAL":4
					},
					"indices":5,
					"material":1
				}
			]
		}
	],
	"accessors":[
		{
			"bufferView":0,
			"componentType":5126,
			"count":3093,
			"max":[
				0.6898834109306335,
				1.3086566925048828,
				0.6547160744667053
			],
			"min":[
				-0.6898834705352783,
				0.0010317210108041763,
				-0.6561768054962158
			],
			"type":"VEC3"
		},
		{
			"bufferView":1,
			"componentType":5126,
			"count":3093,
			"type":"VEC3"
		},
		{
			"bufferView":2,
			"componentType":5123,
			"count":6600,
			"type":"SCALAR"
		},
		{
			"bufferView":3,
			"componentType":5126,
			"count":332,
			"max":[
				0.6269012093544006,
				1.281745433807373,
				0.6269012093544006
			],
			"min":[
				-0.6269012093544006,
				0.02794302999973297,
				-0.6269012689590454
			],
			"type":"VEC3"
		},
		{
			"bufferView":4,
			"componentType":5126,
			"count":332,
			"type":"VEC3"
		},
		{
			"bufferView":5,
			"componentType":5123,
			"count":906,
			"type":"SCALAR"
		}
	],
	"bufferViews":[
		{
			"buffer":0,
			"byteLength":37116,
			"byteOffset":0,
			"target":34962
		},
		{
			"buffer":0,
			"byteLength":37116,
			"byteOffset":37116,
			"target":34962
		},
		{
			"buffer":0,
			"byteLength":13200,
			"byteOffset":74232,
			"target":34963
		},
		{
			"buffer":0,
			"byteLength":3984,
			"byteOffset":87432,
			"target":34962
		},
		{
			"buffer":0,
			"byteLength":3984,
			"byteOffset":91416,
			"target":34962
		},
		{
			"buffer":0,
			"byteLength":1812,
			"byteOffset":95400,
			"target":34963
		}
	],
	"buffers":[
		{
			"byteLength":97212,
			"uri":"Crate-4e1d941998e7a273996563efd08d1be9.bin"
		}
	]
}
