{
	"asset":{
		"generator":"Khronos glTF Blender I/O v4.4.56",
		"version":"2.0"
	},
	"scene":0,
	"scenes":[
		{
			"name":"Scene",
			"nodes":[
				0
			]
		}
	],
	"nodes":[
		{
			"mesh":0,
			"name":"Decorative_Wall"
		}
	],
	"materials":[
		{
			"doubleSided":true,
			"name":"Wall_Dark",
			"pbrMetallicRoughness":{
				"baseColorFactor":[
					0.1959855854511261,
					0.1467834860086441,
					0.09551643580198288,
					1
				],
				"metallicFactor":0,
				"roughnessFactor":0.5
			}
		},
		{
			"doubleSided":true,
			"name":"Wall_Highlights",
			"pbrMetallicRoughness":{
				"baseColorFactor":[
					0.28100576996803284,
					0.22051137685775757,
					0.1552169919013977,
					1
				],
				"metallicFactor":0,
				"roughnessFactor":0.5
			}
		}
	],
	"meshes":[
		{
			"name":"Cube.005",
			"primitives":[
				{
					"attributes":{
						"POSITION":0,
						"NORMAL":1
					},
					"indices":2,
					"material":0
				},
				{
					"attributes":{
						"POSITION":3,
						"NORMAL":4
					},
					"indices":5,
					"material":1
				}
			]
		}
	],
	"accessors":[
		{
			"bufferView":0,
			"componentType":5126,
			"count":1660,
			"max":[
				0.8196856379508972,
				0.7023252248764038,
				0.21903616189956665
			],
			"min":[
				-0.9201306104660034,
				-0.8204067945480347,
				-0.21903616189956665
			],
			"type":"VEC3"
		},
		{
			"bufferView":1,
			"componentType":5126,
			"count":1660,
			"type":"VEC3"
		},
		{
			"bufferView":2,
			"componentType":5123,
			"count":3012,
			"type":"SCALAR"
		},
		{
			"bufferView":3,
			"componentType":5126,
			"count":312,
			"max":[
				0.7179646492004395,
				0.7023251056671143,
				0.21903610229492188
			],
			"min":[
				-0.9201306104660034,
				-0.8204066753387451,
				-0.21903610229492188
			],
			"type":"VEC3"
		},
		{
			"bufferView":4,
			"componentType":5126,
			"count":312,
			"type":"VEC3"
		},
		{
			"bufferView":5,
			"componentType":5123,
			"count":456,
			"type":"SCALAR"
		}
	],
	"bufferViews":[
		{
			"buffer":0,
			"byteLength":19920,
			"byteOffset":0,
			"target":34962
		},
		{
			"buffer":0,
			"byteLength":19920,
			"byteOffset":19920,
			"target":34962
		},
		{
			"buffer":0,
			"byteLength":6024,
			"byteOffset":39840,
			"target":34963
		},
		{
			"buffer":0,
			"byteLength":3744,
			"byteOffset":45864,
			"target":34962
		},
		{
			"buffer":0,
			"byteLength":3744,
			"byteOffset":49608,
			"target":34962
		},
		{
			"buffer":0,
			"byteLength":912,
			"byteOffset":53352,
			"target":34963
		}
	],
	"buffers":[
		{
			"byteLength":54264,
			"uri":"Decorative_Wall-33f9caf83da0aeb2fa6b7ed084ba2c4a.bin"
		}
	]
}
