{
	"asset":{
		"generator":"Khronos glTF Blender I/O v4.4.56",
		"version":"2.0"
	},
	"extensionsUsed":[
		"KHR_materials_emissive_strength",
		"KHR_materials_specular",
		"KHR_materials_ior"
	],
	"scene":0,
	"scenes":[
		{
			"extras":{
				"act":{
					"fbx_export_mode":2,
					"export_custom_options":0,
					"custom_export_path":1,
					"export_path":"//..\\FBX\\",
					"export_dir":"C:\\Users\\Professional\\Documents\\Models\\Fantasy Portal 3D LowPoly Model\\FBX/"
				}
			},
			"name":"Scene",
			"nodes":[
				1
			]
		}
	],
	"nodes":[
		{
			"extras":{
				"ant_landscape":{}
			},
			"mesh":0,
			"name":"Portal_01_Hole",
			"translation":[
				0.023469924926757812,
				1.2205936908721924,
				0.05760299414396286
			]
		},
		{
			"children":[
				0
			],
			"extras":{
				"ant_landscape":{}
			},
			"mesh":1,
			"name":"Portal_01"
		}
	],
	"materials":[
		{
			"doubleSided":true,
			"emissiveFactor":[
				1,
				1,
				1
			],
			"emissiveTexture":{
				"index":0
			},
			"extensions":{
				"KHR_materials_emissive_strength":{
					"emissiveStrength":3
				},
				"KHR_materials_specular":{
					"specularFactor":0
				},
				"KHR_materials_ior":{
					"ior":1.4500000476837158
				}
			},
			"name":"Fantasy Portal 3D LowPoly Model_Textures",
			"pbrMetallicRoughness":{
				"baseColorTexture":{
					"index":1
				},
				"metallicRoughnessTexture":{
					"index":2
				},
				"roughnessFactor":0
			}
		}
	],
	"meshes":[
		{
			"name":"Circle.001",
			"primitives":[
				{
					"attributes":{
						"POSITION":0,
						"NORMAL":1,
						"TEXCOORD_0":2,
						"TANGENT":3
					},
					"indices":4,
					"material":0
				}
			]
		},
		{
			"name":"Circle.004",
			"primitives":[
				{
					"attributes":{
						"POSITION":5,
						"NORMAL":6,
						"TEXCOORD_0":7
					},
					"indices":8,
					"material":0
				}
			]
		}
	],
	"textures":[
		{
			"sampler":0,
			"source":0
		},
		{
			"sampler":0,
			"source":1
		},
		{
			"sampler":0,
			"source":2
		}
	],
	"images":[
		{
			"mimeType":"image/png",
			"name":"Fantasy Portal 3D LowPoly Model_Textures_Emissive.png",
			"uri":"../../assets/world/3D/Fantasy%20Portal%203D%20LowPoly%20Model/Textures/Fantasy%20Portal%203D%20LowPoly%20Model_Textures_Emissive.png"
		},
		{
			"mimeType":"image/png",
			"name":"Fantasy Portal 3D LowPoly Model_Textures_01.png",
			"uri":"../../assets/world/3D/Fantasy%20Portal%203D%20LowPoly%20Model/Textures/Fantasy%20Portal%203D%20LowPoly%20Model_Textures_01.png"
		},
		{
			"mimeType":"image/png",
			"name":"Fantasy Portal 3D LowPoly Model_Textures_Metallic.png",
			"uri":"../../assets/world/3D/Fantasy%20Portal%203D%20LowPoly%20Model/Textures/Fantasy%20Portal%203D%20LowPoly%20Model_Textures_Metallic.png"
		}
	],
	"accessors":[
		{
			"bufferView":0,
			"componentType":5126,
			"count":22,
			"max":[
				0.8273096680641174,
				0.8698849081993103,
				0.032179802656173706
			],
			"min":[
				-0.8273097276687622,
				-0.8698849081993103,
				-0.032179802656173706
			],
			"type":"VEC3"
		},
		{
			"bufferView":1,
			"componentType":5126,
			"count":22,
			"type":"VEC3"
		},
		{
			"bufferView":2,
			"componentType":5126,
			"count":22,
			"type":"VEC2"
		},
		{
			"bufferView":3,
			"componentType":5126,
			"count":22,
			"type":"VEC4"
		},
		{
			"bufferView":4,
			"componentType":5123,
			"count":60,
			"type":"SCALAR"
		},
		{
			"bufferView":5,
			"componentType":5126,
			"count":10382,
			"max":[
				1.302722692489624,
				2.249202251434326,
				1.3475357294082642
			],
			"min":[
				-1.2746344804763794,
				-0.07810342311859131,
				-1.2429882287979126
			],
			"type":"VEC3"
		},
		{
			"bufferView":6,
			"componentType":5126,
			"count":10382,
			"type":"VEC3"
		},
		{
			"bufferView":7,
			"componentType":5126,
			"count":10382,
			"type":"VEC2"
		},
		{
			"bufferView":8,
			"componentType":5123,
			"count":11235,
			"type":"SCALAR"
		}
	],
	"bufferViews":[
		{
			"buffer":0,
			"byteLength":264,
			"byteOffset":0,
			"target":34962
		},
		{
			"buffer":0,
			"byteLength":264,
			"byteOffset":264,
			"target":34962
		},
		{
			"buffer":0,
			"byteLength":176,
			"byteOffset":528,
			"target":34962
		},
		{
			"buffer":0,
			"byteLength":352,
			"byteOffset":704,
			"target":34962
		},
		{
			"buffer":0,
			"byteLength":120,
			"byteOffset":1056,
			"target":34963
		},
		{
			"buffer":0,
			"byteLength":124584,
			"byteOffset":1176,
			"target":34962
		},
		{
			"buffer":0,
			"byteLength":124584,
			"byteOffset":125760,
			"target":34962
		},
		{
			"buffer":0,
			"byteLength":83056,
			"byteOffset":250344,
			"target":34962
		},
		{
			"buffer":0,
			"byteLength":22470,
			"byteOffset":333400,
			"target":34963
		}
	],
	"samplers":[
		{
			"magFilter":9729,
			"minFilter":9987
		}
	],
	"buffers":[
		{
			"byteLength":355872,
			"uri":"Fantasy%20Portal%203D%20LowPoly%20Model-f392943949fa90e7c7b5745ecf207ee3.bin"
		}
	]
}
