{
	"asset":{
		"generator":"Khronos glTF Blender I/O v4.4.56",
		"version":"2.0"
	},
	"scene":0,
	"scenes":[
		{
			"name":"Scene",
			"nodes":[
				0
			]
		}
	],
	"nodes":[
		{
			"mesh":0,
			"name":"Fence_90_Modular"
		}
	],
	"materials":[
		{
			"doubleSided":true,
			"name":"DarkGrey_Floor",
			"pbrMetallicRoughness":{
				"baseColorFactor":[
					0.04549121484160423,
					0.042229779064655304,
					0.0607169046998024,
					1
				],
				"metallicFactor":0,
				"roughnessFactor":0.5
			}
		},
		{
			"doubleSided":true,
			"name":"Grey_Floor",
			"pbrMetallicRoughness":{
				"baseColorFactor":[
					0.07406579703092575,
					0.07146592438220978,
					0.10246681421995163,
					1
				],
				"metallicFactor":0,
				"roughnessFactor":0.5
			}
		}
	],
	"meshes":[
		{
			"name":"Cube",
			"primitives":[
				{
					"attributes":{
						"POSITION":0,
						"NORMAL":1
					},
					"indices":2,
					"material":0
				},
				{
					"attributes":{
						"POSITION":3,
						"NORMAL":4
					},
					"indices":5,
					"material":1
				}
			]
		}
	],
	"accessors":[
		{
			"bufferView":0,
			"componentType":5126,
			"count":116,
			"max":[
				1,
				-0.03309893608093262,
				0.3905984163284302
			],
			"min":[
				-0.3905984163284302,
				-0.9990886449813843,
				-1
			],
			"type":"VEC3"
		},
		{
			"bufferView":1,
			"componentType":5126,
			"count":116,
			"type":"VEC3"
		},
		{
			"bufferView":2,
			"componentType":5123,
			"count":186,
			"type":"SCALAR"
		},
		{
			"bufferView":3,
			"componentType":5126,
			"count":100,
			"max":[
				0.20618851482868195,
				0.2948395013809204,
				0.20618851482868195
			],
			"min":[
				-0.20618851482868195,
				-0.4260917901992798,
				-0.20618851482868195
			],
			"type":"VEC3"
		},
		{
			"bufferView":4,
			"componentType":5126,
			"count":100,
			"type":"VEC3"
		},
		{
			"bufferView":5,
			"componentType":5123,
			"count":150,
			"type":"SCALAR"
		}
	],
	"bufferViews":[
		{
			"buffer":0,
			"byteLength":1392,
			"byteOffset":0,
			"target":34962
		},
		{
			"buffer":0,
			"byteLength":1392,
			"byteOffset":1392,
			"target":34962
		},
		{
			"buffer":0,
			"byteLength":372,
			"byteOffset":2784,
			"target":34963
		},
		{
			"buffer":0,
			"byteLength":1200,
			"byteOffset":3156,
			"target":34962
		},
		{
			"buffer":0,
			"byteLength":1200,
			"byteOffset":4356,
			"target":34962
		},
		{
			"buffer":0,
			"byteLength":300,
			"byteOffset":5556,
			"target":34963
		}
	],
	"buffers":[
		{
			"byteLength":5856,
			"uri":"Fence_90_Modular-c79212fe7b9fed5b3acba23f6ec736f9.bin"
		}
	]
}
