{
	"asset":{
		"generator":"Khronos glTF Blender I/O v4.4.56",
		"version":"2.0"
	},
	"scene":0,
	"scenes":[
		{
			"name":"Scene",
			"nodes":[
				0
			]
		}
	],
	"nodes":[
		{
			"mesh":0,
			"name":"Floor_Modular"
		}
	],
	"materials":[
		{
			"doubleSided":true,
			"name":"Grey_Floor",
			"pbrMetallicRoughness":{
				"baseColorFactor":[
					0.07406579703092575,
					0.07146592438220978,
					0.10246681421995163,
					1
				],
				"metallicFactor":0,
				"roughnessFactor":0.5
			}
		}
	],
	"meshes":[
		{
			"name":"Cube.031",
			"primitives":[
				{
					"attributes":{
						"POSITION":0,
						"NORMAL":1
					},
					"indices":2,
					"material":0
				}
			]
		}
	],
	"accessors":[
		{
			"bufferView":0,
			"componentType":5126,
			"count":2176,
			"max":[
				1.007483959197998,
				0.1251637488603592,
				1.0006062984466553
			],
			"min":[
				-0.9973326921463013,
				-0.1251639723777771,
				-0.9999721646308899
			],
			"type":"VEC3"
		},
		{
			"bufferView":1,
			"componentType":5126,
			"count":2176,
			"type":"VEC3"
		},
		{
			"bufferView":2,
			"componentType":5123,
			"count":3528,
			"type":"SCALAR"
		}
	],
	"bufferViews":[
		{
			"buffer":0,
			"byteLength":26112,
			"byteOffset":0,
			"target":34962
		},
		{
			"buffer":0,
			"byteLength":26112,
			"byteOffset":26112,
			"target":34962
		},
		{
			"buffer":0,
			"byteLength":7056,
			"byteOffset":52224,
			"target":34963
		}
	],
	"buffers":[
		{
			"byteLength":59280,
			"uri":"Floor_Modular-efa7eba2335311d79c270c2e37b8f223.bin"
		}
	]
}
