{
	"asset":{
		"generator":"Khronos glTF Blender I/O v4.4.56",
		"version":"2.0"
	},
	"scene":0,
	"scenes":[
		{
			"name":"Scene",
			"nodes":[
				0
			]
		}
	],
	"nodes":[
		{
			"mesh":0,
			"name":"Floor_6"
		}
	],
	"materials":[
		{
			"doubleSided":true,
			"name":"Material.006",
			"pbrMetallicRoughness":{
				"metallicFactor":0,
				"roughnessFactor":0.6000000238418579
			}
		}
	],
	"meshes":[
		{
			"name":"Cube.022",
			"primitives":[
				{
					"attributes":{
						"POSITION":0,
						"NORMAL":1,
						"TEXCOORD_0":2,
						"TANGENT":3
					},
					"indices":4,
					"material":0
				}
			]
		}
	],
	"accessors":[
		{
			"bufferView":0,
			"componentType":5126,
			"count":244,
			"max":[
				1.0000001192092896,
				0.0072329044342041016,
				1.0000001192092896
			],
			"min":[
				-1.0000001192092896,
				-0.10000000149011612,
				-1.0000001192092896
			],
			"type":"VEC3"
		},
		{
			"bufferView":1,
			"componentType":5126,
			"count":244,
			"type":"VEC3"
		},
		{
			"bufferView":2,
			"componentType":5126,
			"count":244,
			"type":"VEC2"
		},
		{
			"bufferView":3,
			"componentType":5126,
			"count":244,
			"type":"VEC4"
		},
		{
			"bufferView":4,
			"componentType":5123,
			"count":366,
			"type":"SCALAR"
		}
	],
	"bufferViews":[
		{
			"buffer":0,
			"byteLength":2928,
			"byteOffset":0,
			"target":34962
		},
		{
			"buffer":0,
			"byteLength":2928,
			"byteOffset":2928,
			"target":34962
		},
		{
			"buffer":0,
			"byteLength":1952,
			"byteOffset":5856,
			"target":34962
		},
		{
			"buffer":0,
			"byteLength":3904,
			"byteOffset":7808,
			"target":34962
		},
		{
			"buffer":0,
			"byteLength":732,
			"byteOffset":11712,
			"target":34963
		}
	],
	"buffers":[
		{
			"byteLength":12444,
			"uri":"Floor_6-acab71b46eabed0122f5fb4e2412b524.bin"
		}
	]
}
