{
	"asset":{
		"generator":"Khronos glTF Blender I/O v4.4.56",
		"version":"2.0"
	},
	"scene":0,
	"scenes":[
		{
			"name":"Scene",
			"nodes":[
				0
			]
		}
	],
	"nodes":[
		{
			"mesh":0,
			"name":"Pedestal2"
		}
	],
	"materials":[
		{
			"doubleSided":true,
			"name":"Marble",
			"pbrMetallicRoughness":{
				"baseColorFactor":[
					0.334319531917572,
					0.3230457901954651,
					0.3119969666004181,
					1
				],
				"metallicFactor":0,
				"roughnessFactor":0.5
			}
		}
	],
	"meshes":[
		{
			"name":"Cube.008",
			"primitives":[
				{
					"attributes":{
						"POSITION":0,
						"NORMAL":1
					},
					"indices":2,
					"material":0
				}
			]
		}
	],
	"accessors":[
		{
			"bufferView":0,
			"componentType":5126,
			"count":1898,
			"max":[
				0.871516227722168,
				2.32987380027771,
				0.871516227722168
			],
			"min":[
				-0.871516227722168,
				0.015195989049971104,
				-0.871516227722168
			],
			"type":"VEC3"
		},
		{
			"bufferView":1,
			"componentType":5126,
			"count":1898,
			"type":"VEC3"
		},
		{
			"bufferView":2,
			"componentType":5123,
			"count":3546,
			"type":"SCALAR"
		}
	],
	"bufferViews":[
		{
			"buffer":0,
			"byteLength":22776,
			"byteOffset":0,
			"target":34962
		},
		{
			"buffer":0,
			"byteLength":22776,
			"byteOffset":22776,
			"target":34962
		},
		{
			"buffer":0,
			"byteLength":7092,
			"byteOffset":45552,
			"target":34963
		}
	],
	"buffers":[
		{
			"byteLength":52644,
			"uri":"Pedestal2-f0d8a954acb5f72f14698a6b9b92e7c8.bin"
		}
	]
}
