{
	"asset":{
		"generator":"Khronos glTF Blender I/O v4.4.56",
		"version":"2.0"
	},
	"scene":0,
	"scenes":[
		{
			"name":"Scene",
			"nodes":[
				0
			]
		}
	],
	"nodes":[
		{
			"mesh":0,
			"name":"Pedestal"
		}
	],
	"materials":[
		{
			"doubleSided":true,
			"name":"Marble",
			"pbrMetallicRoughness":{
				"baseColorFactor":[
					0.334319531917572,
					0.3230457901954651,
					0.3119969666004181,
					1
				],
				"metallicFactor":0,
				"roughnessFactor":0.5
			}
		}
	],
	"meshes":[
		{
			"name":"Cylinder.014",
			"primitives":[
				{
					"attributes":{
						"POSITION":0,
						"NORMAL":1
					},
					"indices":2,
					"material":0
				}
			]
		}
	],
	"accessors":[
		{
			"bufferView":0,
			"componentType":5126,
			"count":3052,
			"max":[
				0.97346031665802,
				2.1929588317871094,
				0.9797367453575134
			],
			"min":[
				-0.9734914302825928,
				-0.00018127745715901256,
				-0.979717493057251
			],
			"type":"VEC3"
		},
		{
			"bufferView":1,
			"componentType":5126,
			"count":3052,
			"type":"VEC3"
		},
		{
			"bufferView":2,
			"componentType":5123,
			"count":5532,
			"type":"SCALAR"
		}
	],
	"bufferViews":[
		{
			"buffer":0,
			"byteLength":36624,
			"byteOffset":0,
			"target":34962
		},
		{
			"buffer":0,
			"byteLength":36624,
			"byteOffset":36624,
			"target":34962
		},
		{
			"buffer":0,
			"byteLength":11064,
			"byteOffset":73248,
			"target":34963
		}
	],
	"buffers":[
		{
			"byteLength":84312,
			"uri":"Pedestal-5943c509b2078ba136b96c73711cde8f.bin"
		}
	]
}
