{
	"asset":{
		"generator":"Khronos glTF Blender I/O v4.4.55",
		"version":"2.0"
	},
	"scene":0,
	"scenes":[
		{
			"extras":{
				"sprytile_data":{
					"auto_reload":0,
					"world_pixels":32
				}
			},
			"name":"Scene",
			"nodes":[
				0,
				1,
				2,
				3,
				4,
				5,
				6,
				7,
				8,
				9,
				10,
				11,
				12,
				13
			]
		}
	],
	"nodes":[
		{
			"mesh":0,
			"name":"V_F-col",
			"scale":[
				0.5,
				0.5,
				0.5
			],
			"translation":[
				0,
				1,
				0
			]
		},
		{
			"mesh":1,
			"name":"V_LF-col",
			"scale":[
				0.5,
				0.5,
				0.5
			],
			"translation":[
				0,
				1,
				1
			]
		},
		{
			"mesh":2,
			"name":"V_I-col",
			"scale":[
				0.5,
				0.5,
				0.5
			],
			"translation":[
				0,
				1,
				2
			]
		},
		{
			"mesh":3,
			"name":"V_LE-col",
			"translation":[
				0,
				1,
				3
			]
		},
		{
			"mesh":4,
			"name":"F_V-col",
			"scale":[
				0.5,
				0.5,
				0.5
			],
			"translation":[
				0,
				-1,
				0
			]
		},
		{
			"mesh":5,
			"name":"LF_V-col",
			"scale":[
				0.5,
				0.5,
				0.5
			],
			"translation":[
				0,
				-1,
				1
			]
		},
		{
			"mesh":6,
			"name":"I_V-col",
			"scale":[
				0.5,
				0.5,
				0.5
			],
			"translation":[
				0,
				-1,
				2
			]
		},
		{
			"mesh":7,
			"name":"LE_V-col",
			"scale":[
				0.5,
				0.5,
				0.5
			],
			"translation":[
				0,
				-1,
				3
			]
		},
		{
			"mesh":8,
			"name":"I_I-col",
			"scale":[
				0.5,
				0.5,
				0.5
			],
			"translation":[
				0,
				0,
				2
			]
		},
		{
			"mesh":9,
			"name":"LE_LE-col",
			"scale":[
				0.5,
				0.5,
				0.5
			],
			"translation":[
				0,
				0,
				3
			]
		},
		{
			"mesh":10,
			"name":"I_LEL-col",
			"scale":[
				0.5,
				0.5,
				0.5
			],
			"translation":[
				0,
				0,
				-1
			]
		},
		{
			"mesh":11,
			"name":"LE_IL-col",
			"scale":[
				0.5,
				0.5,
				0.5
			],
			"translation":[
				0,
				1,
				-1
			]
		},
		{
			"mesh":12,
			"name":"I_LER-col",
			"scale":[
				0.5,
				0.5,
				0.5
			],
			"translation":[
				0,
				0,
				-2
			]
		},
		{
			"mesh":13,
			"name":"LE_IR-col",
			"scale":[
				0.5,
				0.5,
				0.5
			],
			"translation":[
				0,
				1,
				-2
			]
		}
	],
	"materials":[
		{
			"doubleSided":true,
			"name":"grass_brick",
			"pbrMetallicRoughness":{
				"metallicFactor":0,
				"roughnessFactor":0.5
			}
		}
	],
	"meshes":[
		{
			"name":"Plane",
			"primitives":[
				{
					"attributes":{
						"POSITION":0,
						"NORMAL":1,
						"TEXCOORD_0":2,
						"TANGENT":3
					},
					"indices":4,
					"material":0
				}
			]
		},
		{
			"name":"Plane.001",
			"primitives":[
				{
					"attributes":{
						"POSITION":5,
						"NORMAL":6,
						"TEXCOORD_0":7,
						"TANGENT":8
					},
					"indices":4,
					"material":0
				}
			]
		},
		{
			"name":"Plane.002",
			"primitives":[
				{
					"attributes":{
						"POSITION":9,
						"NORMAL":10,
						"TEXCOORD_0":11,
						"TANGENT":12
					},
					"indices":13,
					"material":0
				}
			]
		},
		{
			"name":"Plane.003",
			"primitives":[
				{
					"attributes":{
						"POSITION":14,
						"NORMAL":15,
						"TEXCOORD_0":16,
						"TANGENT":17
					},
					"indices":18,
					"material":0
				}
			]
		},
		{
			"name":"Plane.004",
			"primitives":[
				{
					"attributes":{
						"POSITION":19,
						"NORMAL":20,
						"TEXCOORD_0":21,
						"TANGENT":22
					},
					"indices":4,
					"material":0
				}
			]
		},
		{
			"name":"Plane.005",
			"primitives":[
				{
					"attributes":{
						"POSITION":23,
						"NORMAL":24,
						"TEXCOORD_0":25,
						"TANGENT":26
					},
					"indices":4,
					"material":0
				}
			]
		},
		{
			"name":"Plane.006",
			"primitives":[
				{
					"attributes":{
						"POSITION":27,
						"NORMAL":28,
						"TEXCOORD_0":29,
						"TANGENT":30
					},
					"indices":31,
					"material":0
				}
			]
		},
		{
			"name":"Plane.007",
			"primitives":[
				{
					"attributes":{
						"POSITION":32,
						"NORMAL":33,
						"TEXCOORD_0":34,
						"TANGENT":35
					},
					"indices":36,
					"material":0
				}
			]
		},
		{
			"name":"Plane.008",
			"primitives":[
				{
					"attributes":{
						"POSITION":37,
						"NORMAL":38,
						"TEXCOORD_0":39,
						"TANGENT":40
					},
					"indices":41,
					"material":0
				}
			]
		},
		{
			"name":"Plane.009",
			"primitives":[
				{
					"attributes":{
						"POSITION":42,
						"NORMAL":43,
						"TEXCOORD_0":44,
						"TANGENT":45
					},
					"indices":46,
					"material":0
				}
			]
		},
		{
			"name":"Plane.010",
			"primitives":[
				{
					"attributes":{
						"POSITION":47,
						"NORMAL":48,
						"TEXCOORD_0":49,
						"TANGENT":50
					},
					"indices":41,
					"material":0
				}
			]
		},
		{
			"name":"Plane.011",
			"primitives":[
				{
					"attributes":{
						"POSITION":51,
						"NORMAL":52,
						"TEXCOORD_0":53,
						"TANGENT":54
					},
					"indices":41,
					"material":0
				}
			]
		},
		{
			"name":"Plane.012",
			"primitives":[
				{
					"attributes":{
						"POSITION":55,
						"NORMAL":56,
						"TEXCOORD_0":57,
						"TANGENT":58
					},
					"indices":41,
					"material":0
				}
			]
		},
		{
			"name":"Plane.013",
			"primitives":[
				{
					"attributes":{
						"POSITION":59,
						"NORMAL":60,
						"TEXCOORD_0":61,
						"TANGENT":62
					},
					"indices":41,
					"material":0
				}
			]
		}
	],
	"accessors":[
		{
			"bufferView":0,
			"componentType":5126,
			"count":4,
			"max":[
				1,
				1,
				1
			],
			"min":[
				-1,
				1,
				-1
			],
			"type":"VEC3"
		},
		{
			"bufferView":1,
			"componentType":5126,
			"count":4,
			"type":"VEC3"
		},
		{
			"bufferView":2,
			"componentType":5126,
			"count":4,
			"type":"VEC2"
		},
		{
			"bufferView":3,
			"componentType":5126,
			"count":4,
			"type":"VEC4"
		},
		{
			"bufferView":4,
			"componentType":5123,
			"count":6,
			"type":"SCALAR"
		},
		{
			"bufferView":5,
			"componentType":5126,
			"count":4,
			"max":[
				1,
				1,
				1
			],
			"min":[
				-1,
				1,
				-1
			],
			"type":"VEC3"
		},
		{
			"bufferView":6,
			"componentType":5126,
			"count":4,
			"type":"VEC3"
		},
		{
			"bufferView":7,
			"componentType":5126,
			"count":4,
			"type":"VEC2"
		},
		{
			"bufferView":8,
			"componentType":5126,
			"count":4,
			"type":"VEC4"
		},
		{
			"bufferView":9,
			"componentType":5126,
			"count":8,
			"max":[
				1,
				1,
				1
			],
			"min":[
				-1,
				-1,
				-1
			],
			"type":"VEC3"
		},
		{
			"bufferView":10,
			"componentType":5126,
			"count":8,
			"type":"VEC3"
		},
		{
			"bufferView":11,
			"componentType":5126,
			"count":8,
			"type":"VEC2"
		},
		{
			"bufferView":12,
			"componentType":5126,
			"count":8,
			"type":"VEC4"
		},
		{
			"bufferView":13,
			"componentType":5123,
			"count":12,
			"type":"SCALAR"
		},
		{
			"bufferView":14,
			"componentType":5126,
			"count":12,
			"max":[
				0.5,
				0.5,
				0.5
			],
			"min":[
				-0.5,
				-0.5,
				-0.5
			],
			"type":"VEC3"
		},
		{
			"bufferView":15,
			"componentType":5126,
			"count":12,
			"type":"VEC3"
		},
		{
			"bufferView":16,
			"componentType":5126,
			"count":12,
			"type":"VEC2"
		},
		{
			"bufferView":17,
			"componentType":5126,
			"count":12,
			"type":"VEC4"
		},
		{
			"bufferView":18,
			"componentType":5123,
			"count":18,
			"type":"SCALAR"
		},
		{
			"bufferView":19,
			"componentType":5126,
			"count":4,
			"max":[
				1,
				-0.9999998807907104,
				1
			],
			"min":[
				-1,
				-1,
				-1
			],
			"type":"VEC3"
		},
		{
			"bufferView":20,
			"componentType":5126,
			"count":4,
			"type":"VEC3"
		},
		{
			"bufferView":21,
			"componentType":5126,
			"count":4,
			"type":"VEC2"
		},
		{
			"bufferView":22,
			"componentType":5126,
			"count":4,
			"type":"VEC4"
		},
		{
			"bufferView":23,
			"componentType":5126,
			"count":4,
			"max":[
				1,
				-0.9999998807907104,
				1
			],
			"min":[
				-1,
				-1,
				-1
			],
			"type":"VEC3"
		},
		{
			"bufferView":24,
			"componentType":5126,
			"count":4,
			"type":"VEC3"
		},
		{
			"bufferView":25,
			"componentType":5126,
			"count":4,
			"type":"VEC2"
		},
		{
			"bufferView":26,
			"componentType":5126,
			"count":4,
			"type":"VEC4"
		},
		{
			"bufferView":27,
			"componentType":5126,
			"count":8,
			"max":[
				1,
				1,
				1
			],
			"min":[
				-1,
				-1,
				-1
			],
			"type":"VEC3"
		},
		{
			"bufferView":28,
			"componentType":5126,
			"count":8,
			"type":"VEC3"
		},
		{
			"bufferView":29,
			"componentType":5126,
			"count":8,
			"type":"VEC2"
		},
		{
			"bufferView":30,
			"componentType":5126,
			"count":8,
			"type":"VEC4"
		},
		{
			"bufferView":31,
			"componentType":5123,
			"count":12,
			"type":"SCALAR"
		},
		{
			"bufferView":32,
			"componentType":5126,
			"count":12,
			"max":[
				1,
				1,
				1
			],
			"min":[
				-1,
				-1,
				-1
			],
			"type":"VEC3"
		},
		{
			"bufferView":33,
			"componentType":5126,
			"count":12,
			"type":"VEC3"
		},
		{
			"bufferView":34,
			"componentType":5126,
			"count":12,
			"type":"VEC2"
		},
		{
			"bufferView":35,
			"componentType":5126,
			"count":12,
			"type":"VEC4"
		},
		{
			"bufferView":36,
			"componentType":5123,
			"count":18,
			"type":"SCALAR"
		},
		{
			"bufferView":37,
			"componentType":5126,
			"count":4,
			"max":[
				1,
				1,
				1
			],
			"min":[
				1,
				-1,
				-1
			],
			"type":"VEC3"
		},
		{
			"bufferView":38,
			"componentType":5126,
			"count":4,
			"type":"VEC3"
		},
		{
			"bufferView":39,
			"componentType":5126,
			"count":4,
			"type":"VEC2"
		},
		{
			"bufferView":40,
			"componentType":5126,
			"count":4,
			"type":"VEC4"
		},
		{
			"bufferView":41,
			"componentType":5123,
			"count":6,
			"type":"SCALAR"
		},
		{
			"bufferView":42,
			"componentType":5126,
			"count":8,
			"max":[
				1,
				1,
				1
			],
			"min":[
				-1,
				-1,
				-1
			],
			"type":"VEC3"
		},
		{
			"bufferView":43,
			"componentType":5126,
			"count":8,
			"type":"VEC3"
		},
		{
			"bufferView":44,
			"componentType":5126,
			"count":8,
			"type":"VEC2"
		},
		{
			"bufferView":45,
			"componentType":5126,
			"count":8,
			"type":"VEC4"
		},
		{
			"bufferView":46,
			"componentType":5123,
			"count":12,
			"type":"SCALAR"
		},
		{
			"bufferView":47,
			"componentType":5126,
			"count":4,
			"max":[
				0.9999999403953552,
				1,
				1
			],
			"min":[
				-1,
				-1,
				0.9999999403953552
			],
			"type":"VEC3"
		},
		{
			"bufferView":48,
			"componentType":5126,
			"count":4,
			"type":"VEC3"
		},
		{
			"bufferView":49,
			"componentType":5126,
			"count":4,
			"type":"VEC2"
		},
		{
			"bufferView":50,
			"componentType":5126,
			"count":4,
			"type":"VEC4"
		},
		{
			"bufferView":51,
			"componentType":5126,
			"count":4,
			"max":[
				0.9999999403953552,
				1,
				1
			],
			"min":[
				-1,
				-1,
				0.9999999403953552
			],
			"type":"VEC3"
		},
		{
			"bufferView":52,
			"componentType":5126,
			"count":4,
			"type":"VEC3"
		},
		{
			"bufferView":53,
			"componentType":5126,
			"count":4,
			"type":"VEC2"
		},
		{
			"bufferView":54,
			"componentType":5126,
			"count":4,
			"type":"VEC4"
		},
		{
			"bufferView":55,
			"componentType":5126,
			"count":4,
			"max":[
				0.9999999403953552,
				1,
				-0.9999999403953552
			],
			"min":[
				-1,
				-1,
				-1
			],
			"type":"VEC3"
		},
		{
			"bufferView":56,
			"componentType":5126,
			"count":4,
			"type":"VEC3"
		},
		{
			"bufferView":57,
			"componentType":5126,
			"count":4,
			"type":"VEC2"
		},
		{
			"bufferView":58,
			"componentType":5126,
			"count":4,
			"type":"VEC4"
		},
		{
			"bufferView":59,
			"componentType":5126,
			"count":4,
			"max":[
				0.9999999403953552,
				1,
				-0.9999999403953552
			],
			"min":[
				-1,
				-1,
				-1
			],
			"type":"VEC3"
		},
		{
			"bufferView":60,
			"componentType":5126,
			"count":4,
			"type":"VEC3"
		},
		{
			"bufferView":61,
			"componentType":5126,
			"count":4,
			"type":"VEC2"
		},
		{
			"bufferView":62,
			"componentType":5126,
			"count":4,
			"type":"VEC4"
		}
	],
	"bufferViews":[
		{
			"buffer":0,
			"byteLength":48,
			"byteOffset":0,
			"target":34962
		},
		{
			"buffer":0,
			"byteLength":48,
			"byteOffset":48,
			"target":34962
		},
		{
			"buffer":0,
			"byteLength":32,
			"byteOffset":96,
			"target":34962
		},
		{
			"buffer":0,
			"byteLength":64,
			"byteOffset":128,
			"target":34962
		},
		{
			"buffer":0,
			"byteLength":12,
			"byteOffset":192,
			"target":34963
		},
		{
			"buffer":0,
			"byteLength":48,
			"byteOffset":204,
			"target":34962
		},
		{
			"buffer":0,
			"byteLength":48,
			"byteOffset":252,
			"target":34962
		},
		{
			"buffer":0,
			"byteLength":32,
			"byteOffset":300,
			"target":34962
		},
		{
			"buffer":0,
			"byteLength":64,
			"byteOffset":332,
			"target":34962
		},
		{
			"buffer":0,
			"byteLength":96,
			"byteOffset":396,
			"target":34962
		},
		{
			"buffer":0,
			"byteLength":96,
			"byteOffset":492,
			"target":34962
		},
		{
			"buffer":0,
			"byteLength":64,
			"byteOffset":588,
			"target":34962
		},
		{
			"buffer":0,
			"byteLength":128,
			"byteOffset":652,
			"target":34962
		},
		{
			"buffer":0,
			"byteLength":24,
			"byteOffset":780,
			"target":34963
		},
		{
			"buffer":0,
			"byteLength":144,
			"byteOffset":804,
			"target":34962
		},
		{
			"buffer":0,
			"byteLength":144,
			"byteOffset":948,
			"target":34962
		},
		{
			"buffer":0,
			"byteLength":96,
			"byteOffset":1092,
			"target":34962
		},
		{
			"buffer":0,
			"byteLength":192,
			"byteOffset":1188,
			"target":34962
		},
		{
			"buffer":0,
			"byteLength":36,
			"byteOffset":1380,
			"target":34963
		},
		{
			"buffer":0,
			"byteLength":48,
			"byteOffset":1416,
			"target":34962
		},
		{
			"buffer":0,
			"byteLength":48,
			"byteOffset":1464,
			"target":34962
		},
		{
			"buffer":0,
			"byteLength":32,
			"byteOffset":1512,
			"target":34962
		},
		{
			"buffer":0,
			"byteLength":64,
			"byteOffset":1544,
			"target":34962
		},
		{
			"buffer":0,
			"byteLength":48,
			"byteOffset":1608,
			"target":34962
		},
		{
			"buffer":0,
			"byteLength":48,
			"byteOffset":1656,
			"target":34962
		},
		{
			"buffer":0,
			"byteLength":32,
			"byteOffset":1704,
			"target":34962
		},
		{
			"buffer":0,
			"byteLength":64,
			"byteOffset":1736,
			"target":34962
		},
		{
			"buffer":0,
			"byteLength":96,
			"byteOffset":1800,
			"target":34962
		},
		{
			"buffer":0,
			"byteLength":96,
			"byteOffset":1896,
			"target":34962
		},
		{
			"buffer":0,
			"byteLength":64,
			"byteOffset":1992,
			"target":34962
		},
		{
			"buffer":0,
			"byteLength":128,
			"byteOffset":2056,
			"target":34962
		},
		{
			"buffer":0,
			"byteLength":24,
			"byteOffset":2184,
			"target":34963
		},
		{
			"buffer":0,
			"byteLength":144,
			"byteOffset":2208,
			"target":34962
		},
		{
			"buffer":0,
			"byteLength":144,
			"byteOffset":2352,
			"target":34962
		},
		{
			"buffer":0,
			"byteLength":96,
			"byteOffset":2496,
			"target":34962
		},
		{
			"buffer":0,
			"byteLength":192,
			"byteOffset":2592,
			"target":34962
		},
		{
			"buffer":0,
			"byteLength":36,
			"byteOffset":2784,
			"target":34963
		},
		{
			"buffer":0,
			"byteLength":48,
			"byteOffset":2820,
			"target":34962
		},
		{
			"buffer":0,
			"byteLength":48,
			"byteOffset":2868,
			"target":34962
		},
		{
			"buffer":0,
			"byteLength":32,
			"byteOffset":2916,
			"target":34962
		},
		{
			"buffer":0,
			"byteLength":64,
			"byteOffset":2948,
			"target":34962
		},
		{
			"buffer":0,
			"byteLength":12,
			"byteOffset":3012,
			"target":34963
		},
		{
			"buffer":0,
			"byteLength":96,
			"byteOffset":3024,
			"target":34962
		},
		{
			"buffer":0,
			"byteLength":96,
			"byteOffset":3120,
			"target":34962
		},
		{
			"buffer":0,
			"byteLength":64,
			"byteOffset":3216,
			"target":34962
		},
		{
			"buffer":0,
			"byteLength":128,
			"byteOffset":3280,
			"target":34962
		},
		{
			"buffer":0,
			"byteLength":24,
			"byteOffset":3408,
			"target":34963
		},
		{
			"buffer":0,
			"byteLength":48,
			"byteOffset":3432,
			"target":34962
		},
		{
			"buffer":0,
			"byteLength":48,
			"byteOffset":3480,
			"target":34962
		},
		{
			"buffer":0,
			"byteLength":32,
			"byteOffset":3528,
			"target":34962
		},
		{
			"buffer":0,
			"byteLength":64,
			"byteOffset":3560,
			"target":34962
		},
		{
			"buffer":0,
			"byteLength":48,
			"byteOffset":3624,
			"target":34962
		},
		{
			"buffer":0,
			"byteLength":48,
			"byteOffset":3672,
			"target":34962
		},
		{
			"buffer":0,
			"byteLength":32,
			"byteOffset":3720,
			"target":34962
		},
		{
			"buffer":0,
			"byteLength":64,
			"byteOffset":3752,
			"target":34962
		},
		{
			"buffer":0,
			"byteLength":48,
			"byteOffset":3816,
			"target":34962
		},
		{
			"buffer":0,
			"byteLength":48,
			"byteOffset":3864,
			"target":34962
		},
		{
			"buffer":0,
			"byteLength":32,
			"byteOffset":3912,
			"target":34962
		},
		{
			"buffer":0,
			"byteLength":64,
			"byteOffset":3944,
			"target":34962
		},
		{
			"buffer":0,
			"byteLength":48,
			"byteOffset":4008,
			"target":34962
		},
		{
			"buffer":0,
			"byteLength":48,
			"byteOffset":4056,
			"target":34962
		},
		{
			"buffer":0,
			"byteLength":32,
			"byteOffset":4104,
			"target":34962
		},
		{
			"buffer":0,
			"byteLength":64,
			"byteOffset":4136,
			"target":34962
		}
	],
	"buffers":[
		{
			"byteLength":4200,
			"uri":"square_tiles-5cc6af378277a76411e99dcd7a284f14.bin"
		}
	]
}
