{
	"asset":{
		"generator":"Khronos glTF Blender I/O v4.4.56",
		"version":"2.0"
	},
	"scene":0,
	"scenes":[
		{
			"name":"Scene",
			"nodes":[
				0
			]
		}
	],
	"nodes":[
		{
			"mesh":0,
			"name":"Stairs_Modular"
		}
	],
	"materials":[
		{
			"doubleSided":true,
			"name":"Grey_Floor",
			"pbrMetallicRoughness":{
				"baseColorFactor":[
					0.07406579703092575,
					0.07146592438220978,
					0.10246681421995163,
					1
				],
				"metallicFactor":0,
				"roughnessFactor":0.5
			}
		}
	],
	"meshes":[
		{
			"name":"Cube.031",
			"primitives":[
				{
					"attributes":{
						"POSITION":0,
						"NORMAL":1
					},
					"indices":2,
					"material":0
				}
			]
		}
	],
	"accessors":[
		{
			"bufferView":0,
			"componentType":5126,
			"count":2610,
			"max":[
				1.004953384399414,
				1.0071536302566528,
				1.0294523239135742
			],
			"min":[
				-1.0081825256347656,
				-1.0121608972549438,
				-1.0221563577651978
			],
			"type":"VEC3"
		},
		{
			"bufferView":1,
			"componentType":5126,
			"count":2610,
			"type":"VEC3"
		},
		{
			"bufferView":2,
			"componentType":5123,
			"count":4260,
			"type":"SCALAR"
		}
	],
	"bufferViews":[
		{
			"buffer":0,
			"byteLength":31320,
			"byteOffset":0,
			"target":34962
		},
		{
			"buffer":0,
			"byteLength":31320,
			"byteOffset":31320,
			"target":34962
		},
		{
			"buffer":0,
			"byteLength":8520,
			"byteOffset":62640,
			"target":34963
		}
	],
	"buffers":[
		{
			"byteLength":71160,
			"uri":"Stairs_Modular-cc92217fa3cc3a8b330dfda12364e0dd.bin"
		}
	]
}
