{
	"asset":{
		"generator":"Khronos glTF Blender I/O v4.4.56",
		"version":"2.0"
	},
	"scene":0,
	"scenes":[
		{
			"name":"Scene",
			"nodes":[
				0
			]
		}
	],
	"nodes":[
		{
			"mesh":0,
			"name":"Stairs_SideCoverWall",
			"translation":[
				0,
				0,
				-2
			]
		}
	],
	"materials":[
		{
			"doubleSided":true,
			"name":"Grey_Floor",
			"pbrMetallicRoughness":{
				"baseColorFactor":[
					0.07406579703092575,
					0.07146592438220978,
					0.10246681421995163,
					1
				],
				"metallicFactor":0,
				"roughnessFactor":0.5
			}
		}
	],
	"meshes":[
		{
			"name":"Cube.069",
			"primitives":[
				{
					"attributes":{
						"POSITION":0,
						"NORMAL":1
					},
					"indices":2,
					"material":0
				}
			]
		}
	],
	"accessors":[
		{
			"bufferView":0,
			"componentType":5126,
			"count":2306,
			"max":[
				1.2582248449325562,
				1.0197640657424927,
				1.0199686288833618
			],
			"min":[
				0.8155145049095154,
				-1.0129128694534302,
				-1.0087943077087402
			],
			"type":"VEC3"
		},
		{
			"bufferView":1,
			"componentType":5126,
			"count":2306,
			"type":"VEC3"
		},
		{
			"bufferView":2,
			"componentType":5123,
			"count":3756,
			"type":"SCALAR"
		}
	],
	"bufferViews":[
		{
			"buffer":0,
			"byteLength":27672,
			"byteOffset":0,
			"target":34962
		},
		{
			"buffer":0,
			"byteLength":27672,
			"byteOffset":27672,
			"target":34962
		},
		{
			"buffer":0,
			"byteLength":7512,
			"byteOffset":55344,
			"target":34963
		}
	],
	"buffers":[
		{
			"byteLength":62856,
			"uri":"Stairs_SideCoverWall-24958f93ad8d487b275fe8d8f93349ae.bin"
		}
	]
}
