{
	"asset":{
		"generator":"Khronos glTF Blender I/O v4.4.56",
		"version":"2.0"
	},
	"scene":0,
	"scenes":[
		{
			"name":"Scene",
			"nodes":[
				0
			]
		}
	],
	"nodes":[
		{
			"mesh":0,
			"name":"Stairs_SideCover"
		}
	],
	"materials":[
		{
			"doubleSided":true,
			"name":"Grey_Floor",
			"pbrMetallicRoughness":{
				"baseColorFactor":[
					0.07406579703092575,
					0.07146592438220978,
					0.10246681421995163,
					1
				],
				"metallicFactor":0,
				"roughnessFactor":0.5
			}
		}
	],
	"meshes":[
		{
			"name":"Cube.058",
			"primitives":[
				{
					"attributes":{
						"POSITION":0,
						"NORMAL":1
					},
					"indices":2,
					"material":0
				}
			]
		}
	],
	"accessors":[
		{
			"bufferView":0,
			"componentType":5126,
			"count":1632,
			"max":[
				1.2582248449325562,
				1.018060326576233,
				1.0502420663833618
			],
			"min":[
				0.8155145049095154,
				-1.0129128694534302,
				-1.0087943077087402
			],
			"type":"VEC3"
		},
		{
			"bufferView":1,
			"componentType":5126,
			"count":1632,
			"type":"VEC3"
		},
		{
			"bufferView":2,
			"componentType":5123,
			"count":2676,
			"type":"SCALAR"
		}
	],
	"bufferViews":[
		{
			"buffer":0,
			"byteLength":19584,
			"byteOffset":0,
			"target":34962
		},
		{
			"buffer":0,
			"byteLength":19584,
			"byteOffset":19584,
			"target":34962
		},
		{
			"buffer":0,
			"byteLength":5352,
			"byteOffset":39168,
			"target":34963
		}
	],
	"buffers":[
		{
			"byteLength":44520,
			"uri":"Stairs_SideCover-93b6954a37224ce63794ffd7ecb1dd5f.bin"
		}
	]
}
