{
	"asset":{
		"generator":"Khronos glTF Blender I/O v4.4.56",
		"version":"2.0"
	},
	"scene":0,
	"scenes":[
		{
			"name":"Scene",
			"nodes":[
				0,
				1
			]
		}
	],
	"nodes":[
		{
			"mesh":0,
			"name":"Pedestal",
			"translation":[
				-0.007198810577392578,
				0,
				5.450250625610352
			]
		},
		{
			"mesh":1,
			"name":"Horse",
			"translation":[
				-0.07301044464111328,
				2.2962214946746826,
				5.388471603393555
			]
		}
	],
	"materials":[
		{
			"doubleSided":true,
			"name":"Marble",
			"pbrMetallicRoughness":{
				"baseColorFactor":[
					0.334319531917572,
					0.3230457901954651,
					0.3119969666004181,
					1
				],
				"metallicFactor":0,
				"roughnessFactor":0.5
			}
		},
		{
			"doubleSided":true,
			"name":"Statue",
			"pbrMetallicRoughness":{
				"baseColorFactor":[
					0.2079131156206131,
					0.2079131156206131,
					0.2079131156206131,
					1
				],
				"metallicFactor":0,
				"roughnessFactor":0.5
			}
		}
	],
	"meshes":[
		{
			"name":"Cube.008",
			"primitives":[
				{
					"attributes":{
						"POSITION":0,
						"NORMAL":1
					},
					"indices":2,
					"material":0
				}
			]
		},
		{
			"name":"Cylinder.012",
			"primitives":[
				{
					"attributes":{
						"POSITION":3,
						"NORMAL":4
					},
					"indices":5,
					"material":1
				}
			]
		}
	],
	"accessors":[
		{
			"bufferView":0,
			"componentType":5126,
			"count":1898,
			"max":[
				0.871516227722168,
				2.32987380027771,
				0.871516227722168
			],
			"min":[
				-0.871516227722168,
				0.015195989049971104,
				-0.871516227722168
			],
			"type":"VEC3"
		},
		{
			"bufferView":1,
			"componentType":5126,
			"count":1898,
			"type":"VEC3"
		},
		{
			"bufferView":2,
			"componentType":5123,
			"count":3546,
			"type":"SCALAR"
		},
		{
			"bufferView":3,
			"componentType":5126,
			"count":1394,
			"max":[
				0.5116682648658752,
				3.573784112930298,
				2.152815818786621
			],
			"min":[
				-0.515828013420105,
				-0.03502248600125313,
				-1.2255375385284424
			],
			"type":"VEC3"
		},
		{
			"bufferView":4,
			"componentType":5126,
			"count":1394,
			"type":"VEC3"
		},
		{
			"bufferView":5,
			"componentType":5123,
			"count":2004,
			"type":"SCALAR"
		}
	],
	"bufferViews":[
		{
			"buffer":0,
			"byteLength":22776,
			"byteOffset":0,
			"target":34962
		},
		{
			"buffer":0,
			"byteLength":22776,
			"byteOffset":22776,
			"target":34962
		},
		{
			"buffer":0,
			"byteLength":7092,
			"byteOffset":45552,
			"target":34963
		},
		{
			"buffer":0,
			"byteLength":16728,
			"byteOffset":52644,
			"target":34962
		},
		{
			"buffer":0,
			"byteLength":16728,
			"byteOffset":69372,
			"target":34962
		},
		{
			"buffer":0,
			"byteLength":4008,
			"byteOffset":86100,
			"target":34963
		}
	],
	"buffers":[
		{
			"byteLength":90108,
			"uri":"Statue_Horse-d734ef673d74ed6544a1b4cd3e67b3ef.bin"
		}
	]
}
