{
	"asset":{
		"generator":"Khronos glTF Blender I/O v4.4.56",
		"version":"2.0"
	},
	"scene":0,
	"scenes":[
		{
			"name":"Scene",
			"nodes":[
				0,
				1,
				2
			]
		}
	],
	"nodes":[
		{
			"mesh":0,
			"name":"Sword_WallMount"
		},
		{
			"mesh":1,
			"name":"Sword",
			"translation":[
				0.014595478773117065,
				0.27523595094680786,
				0.11390314251184464
			]
		},
		{
			"mesh":2,
			"name":"Sword_big",
			"translation":[
				0.07510724663734436,
				0.07867319881916046,
				0.1412244588136673
			]
		}
	],
	"materials":[
		{
			"doubleSided":true,
			"name":"DarkWood",
			"pbrMetallicRoughness":{
				"baseColorFactor":[
					0.11927328258752823,
					0.0632803663611412,
					0.05076603218913078,
					1
				],
				"metallicFactor":0,
				"roughnessFactor":0.5
			}
		},
		{
			"doubleSided":true,
			"name":"Steel",
			"pbrMetallicRoughness":{
				"baseColorFactor":[
					0.3762621283531189,
					0.40197786688804626,
					0.43965715169906616,
					1
				],
				"metallicFactor":0,
				"roughnessFactor":0.5
			}
		},
		{
			"doubleSided":true,
			"name":"LightWood",
			"pbrMetallicRoughness":{
				"baseColorFactor":[
					0.23839758336544037,
					0.10461650043725967,
					0.05126946046948433,
					1
				],
				"metallicFactor":0,
				"roughnessFactor":0.5
			}
		},
		{
			"doubleSided":true,
			"name":"DarkWood.001",
			"pbrMetallicRoughness":{
				"baseColorFactor":[
					0.16263775527477264,
					0.07264051586389542,
					0.03634459897875786,
					1
				],
				"metallicFactor":0,
				"roughnessFactor":0.5
			}
		},
		{
			"doubleSided":true,
			"name":"LightSteel",
			"pbrMetallicRoughness":{
				"baseColorFactor":[
					0.4620770215988159,
					0.4910208284854889,
					0.539479672908783,
					1
				],
				"metallicFactor":0,
				"roughnessFactor":0.5
			}
		},
		{
			"doubleSided":true,
			"name":"DarkSteel",
			"pbrMetallicRoughness":{
				"baseColorFactor":[
					0.26635563373565674,
					0.26635563373565674,
					0.22322800755500793,
					1
				],
				"metallicFactor":0,
				"roughnessFactor":0.5
			}
		}
	],
	"meshes":[
		{
			"name":"Cube.002",
			"primitives":[
				{
					"attributes":{
						"POSITION":0,
						"NORMAL":1
					},
					"indices":2,
					"material":0
				},
				{
					"attributes":{
						"POSITION":3,
						"NORMAL":4
					},
					"indices":5,
					"material":0
				}
			]
		},
		{
			"name":"Cylinder.005",
			"primitives":[
				{
					"attributes":{
						"POSITION":6,
						"NORMAL":7
					},
					"indices":8,
					"material":1
				},
				{
					"attributes":{
						"POSITION":9,
						"NORMAL":10
					},
					"indices":11,
					"material":2
				},
				{
					"attributes":{
						"POSITION":12,
						"NORMAL":13
					},
					"indices":14,
					"material":3
				},
				{
					"attributes":{
						"POSITION":15,
						"NORMAL":16
					},
					"indices":17,
					"material":4
				},
				{
					"attributes":{
						"POSITION":18,
						"NORMAL":19
					},
					"indices":20,
					"material":5
				}
			]
		},
		{
			"name":"Cylinder.009",
			"primitives":[
				{
					"attributes":{
						"POSITION":21,
						"NORMAL":22
					},
					"indices":23,
					"material":1
				},
				{
					"attributes":{
						"POSITION":24,
						"NORMAL":25
					},
					"indices":26,
					"material":2
				},
				{
					"attributes":{
						"POSITION":27,
						"NORMAL":28
					},
					"indices":29,
					"material":0
				},
				{
					"attributes":{
						"POSITION":30,
						"NORMAL":31
					},
					"indices":32,
					"material":4
				},
				{
					"attributes":{
						"POSITION":33,
						"NORMAL":34
					},
					"indices":35,
					"material":5
				}
			]
		}
	],
	"accessors":[
		{
			"bufferView":0,
			"componentType":5126,
			"count":652,
			"max":[
				0.2381802499294281,
				0.445811927318573,
				0.1946791410446167
			],
			"min":[
				-0.23679476976394653,
				-0.40132981538772583,
				-0.0009452030062675476
			],
			"type":"VEC3"
		},
		{
			"bufferView":1,
			"componentType":5126,
			"count":652,
			"type":"VEC3"
		},
		{
			"bufferView":2,
			"componentType":5123,
			"count":1416,
			"type":"SCALAR"
		},
		{
			"bufferView":3,
			"componentType":5126,
			"count":332,
			"max":[
				0.2946673035621643,
				0.36377644538879395,
				0.0326826274394989
			],
			"min":[
				-0.2932818531990051,
				-0.3321852684020996,
				0.020304113626480103
			],
			"type":"VEC3"
		},
		{
			"bufferView":4,
			"componentType":5126,
			"count":332,
			"type":"VEC3"
		},
		{
			"bufferView":5,
			"componentType":5123,
			"count":624,
			"type":"SCALAR"
		},
		{
			"bufferView":6,
			"componentType":5126,
			"count":150,
			"max":[
				0.4130198359489441,
				0.030545862391591072,
				0.02012159489095211
			],
			"min":[
				-0.18632040917873383,
				-0.03408602625131607,
				-0.022172141820192337
			],
			"type":"VEC3"
		},
		{
			"bufferView":7,
			"componentType":5126,
			"count":150,
			"type":"VEC3"
		},
		{
			"bufferView":8,
			"componentType":5123,
			"count":672,
			"type":"SCALAR"
		},
		{
			"bufferView":9,
			"componentType":5126,
			"count":480,
			"max":[
				-0.2223426252603531,
				0.019479218870401382,
				0.018902208656072617
			],
			"min":[
				-0.38322004675865173,
				-0.018107984215021133,
				-0.018107935786247253
			],
			"type":"VEC3"
		},
		{
			"bufferView":10,
			"componentType":5126,
			"count":480,
			"type":"VEC3"
		},
		{
			"bufferView":11,
			"componentType":5123,
			"count":720,
			"type":"SCALAR"
		},
		{
			"bufferView":12,
			"componentType":5126,
			"count":192,
			"max":[
				-0.22044309973716736,
				0.01530047319829464,
				0.014723459258675575
			],
			"min":[
				-0.3855663239955902,
				-0.01395279448479414,
				-0.01395274605602026
			],
			"type":"VEC3"
		},
		{
			"bufferView":13,
			"componentType":5126,
			"count":192,
			"type":"VEC3"
		},
		{
			"bufferView":14,
			"componentType":5123,
			"count":288,
			"type":"SCALAR"
		},
		{
			"bufferView":15,
			"componentType":5126,
			"count":264,
			"max":[
				0.42880553007125854,
				0.03561728447675705,
				0.020630041137337685
			],
			"min":[
				-0.18632042407989502,
				-0.036973025649785995,
				-0.022172141820192337
			],
			"type":"VEC3"
		},
		{
			"bufferView":16,
			"componentType":5126,
			"count":264,
			"type":"VEC3"
		},
		{
			"bufferView":17,
			"componentType":5123,
			"count":396,
			"type":"SCALAR"
		},
		{
			"bufferView":18,
			"componentType":5126,
			"count":297,
			"max":[
				-0.13432955741882324,
				0.0828564241528511,
				0.05386278033256531
			],
			"min":[
				-0.42880553007125854,
				-0.08285648375749588,
				-0.0538627952337265
			],
			"type":"VEC3"
		},
		{
			"bufferView":19,
			"componentType":5126,
			"count":297,
			"type":"VEC3"
		},
		{
			"bufferView":20,
			"componentType":5123,
			"count":540,
			"type":"SCALAR"
		},
		{
			"bufferView":21,
			"componentType":5126,
			"count":96,
			"max":[
				0.5190893411636353,
				0.04644504562020302,
				0.04691727086901665
			],
			"min":[
				-0.2323213815689087,
				-0.046445149928331375,
				-0.04691731557250023
			],
			"type":"VEC3"
		},
		{
			"bufferView":22,
			"componentType":5126,
			"count":96,
			"type":"VEC3"
		},
		{
			"bufferView":23,
			"componentType":5123,
			"count":420,
			"type":"SCALAR"
		},
		{
			"bufferView":24,
			"componentType":5126,
			"count":672,
			"max":[
				-0.2848590910434723,
				0.018007414415478706,
				0.01800745353102684
			],
			"min":[
				-0.49723759293556213,
				-0.018007544800639153,
				-0.01800750568509102
			],
			"type":"VEC3"
		},
		{
			"bufferView":25,
			"componentType":5126,
			"count":672,
			"type":"VEC3"
		},
		{
			"bufferView":26,
			"componentType":5123,
			"count":1008,
			"type":"SCALAR"
		},
		{
			"bufferView":27,
			"componentType":5126,
			"count":256,
			"max":[
				-0.27753937244415283,
				0.019134273752570152,
				0.019134309142827988
			],
			"min":[
				-0.5004236698150635,
				-0.01913439668715,
				-0.019134361296892166
			],
			"type":"VEC3"
		},
		{
			"bufferView":28,
			"componentType":5126,
			"count":256,
			"type":"VEC3"
		},
		{
			"bufferView":29,
			"componentType":5123,
			"count":384,
			"type":"SCALAR"
		},
		{
			"bufferView":30,
			"componentType":5126,
			"count":172,
			"max":[
				0.5329082608222961,
				0.05019955337047577,
				0.05081481114029884
			],
			"min":[
				-0.2323213815689087,
				-0.050199657678604126,
				-0.050814855843782425
			],
			"type":"VEC3"
		},
		{
			"bufferView":31,
			"componentType":5126,
			"count":172,
			"type":"VEC3"
		},
		{
			"bufferView":32,
			"componentType":5123,
			"count":252,
			"type":"SCALAR"
		},
		{
			"bufferView":33,
			"componentType":5126,
			"count":244,
			"max":[
				-0.22083330154418945,
				0.06894530355930328,
				0.06955579668283463
			],
			"min":[
				-0.5329082608222961,
				-0.06894540786743164,
				-0.0695558413863182
			],
			"type":"VEC3"
		},
		{
			"bufferView":34,
			"componentType":5126,
			"count":244,
			"type":"VEC3"
		},
		{
			"bufferView":35,
			"componentType":5123,
			"count":426,
			"type":"SCALAR"
		}
	],
	"bufferViews":[
		{
			"buffer":0,
			"byteLength":7824,
			"byteOffset":0,
			"target":34962
		},
		{
			"buffer":0,
			"byteLength":7824,
			"byteOffset":7824,
			"target":34962
		},
		{
			"buffer":0,
			"byteLength":2832,
			"byteOffset":15648,
			"target":34963
		},
		{
			"buffer":0,
			"byteLength":3984,
			"byteOffset":18480,
			"target":34962
		},
		{
			"buffer":0,
			"byteLength":3984,
			"byteOffset":22464,
			"target":34962
		},
		{
			"buffer":0,
			"byteLength":1248,
			"byteOffset":26448,
			"target":34963
		},
		{
			"buffer":0,
			"byteLength":1800,
			"byteOffset":27696,
			"target":34962
		},
		{
			"buffer":0,
			"byteLength":1800,
			"byteOffset":29496,
			"target":34962
		},
		{
			"buffer":0,
			"byteLength":1344,
			"byteOffset":31296,
			"target":34963
		},
		{
			"buffer":0,
			"byteLength":5760,
			"byteOffset":32640,
			"target":34962
		},
		{
			"buffer":0,
			"byteLength":5760,
			"byteOffset":38400,
			"target":34962
		},
		{
			"buffer":0,
			"byteLength":1440,
			"byteOffset":44160,
			"target":34963
		},
		{
			"buffer":0,
			"byteLength":2304,
			"byteOffset":45600,
			"target":34962
		},
		{
			"buffer":0,
			"byteLength":2304,
			"byteOffset":47904,
			"target":34962
		},
		{
			"buffer":0,
			"byteLength":576,
			"byteOffset":50208,
			"target":34963
		},
		{
			"buffer":0,
			"byteLength":3168,
			"byteOffset":50784,
			"target":34962
		},
		{
			"buffer":0,
			"byteLength":3168,
			"byteOffset":53952,
			"target":34962
		},
		{
			"buffer":0,
			"byteLength":792,
			"byteOffset":57120,
			"target":34963
		},
		{
			"buffer":0,
			"byteLength":3564,
			"byteOffset":57912,
			"target":34962
		},
		{
			"buffer":0,
			"byteLength":3564,
			"byteOffset":61476,
			"target":34962
		},
		{
			"buffer":0,
			"byteLength":1080,
			"byteOffset":65040,
			"target":34963
		},
		{
			"buffer":0,
			"byteLength":1152,
			"byteOffset":66120,
			"target":34962
		},
		{
			"buffer":0,
			"byteLength":1152,
			"byteOffset":67272,
			"target":34962
		},
		{
			"buffer":0,
			"byteLength":840,
			"byteOffset":68424,
			"target":34963
		},
		{
			"buffer":0,
			"byteLength":8064,
			"byteOffset":69264,
			"target":34962
		},
		{
			"buffer":0,
			"byteLength":8064,
			"byteOffset":77328,
			"target":34962
		},
		{
			"buffer":0,
			"byteLength":2016,
			"byteOffset":85392,
			"target":34963
		},
		{
			"buffer":0,
			"byteLength":3072,
			"byteOffset":87408,
			"target":34962
		},
		{
			"buffer":0,
			"byteLength":3072,
			"byteOffset":90480,
			"target":34962
		},
		{
			"buffer":0,
			"byteLength":768,
			"byteOffset":93552,
			"target":34963
		},
		{
			"buffer":0,
			"byteLength":2064,
			"byteOffset":94320,
			"target":34962
		},
		{
			"buffer":0,
			"byteLength":2064,
			"byteOffset":96384,
			"target":34962
		},
		{
			"buffer":0,
			"byteLength":504,
			"byteOffset":98448,
			"target":34963
		},
		{
			"buffer":0,
			"byteLength":2928,
			"byteOffset":98952,
			"target":34962
		},
		{
			"buffer":0,
			"byteLength":2928,
			"byteOffset":101880,
			"target":34962
		},
		{
			"buffer":0,
			"byteLength":852,
			"byteOffset":104808,
			"target":34963
		}
	],
	"buffers":[
		{
			"byteLength":105660,
			"uri":"Sword_WallMount-722daf2812a5708c6a00aea38ab88203.bin"
		}
	]
}
