{
	"asset":{
		"generator":"Khronos glTF Blender I/O v4.4.56",
		"version":"2.0"
	},
	"scene":0,
	"scenes":[
		{
			"name":"Scene",
			"nodes":[
				0
			]
		}
	],
	"nodes":[
		{
			"mesh":0,
			"name":"Table_Big"
		}
	],
	"materials":[
		{
			"doubleSided":true,
			"name":"Wood",
			"pbrMetallicRoughness":{
				"baseColorFactor":[
					0.20189261436462402,
					0.10397916287183762,
					0.07928955554962158,
					1
				],
				"metallicFactor":0,
				"roughnessFactor":0.5
			}
		},
		{
			"doubleSided":true,
			"name":"DarkWood",
			"pbrMetallicRoughness":{
				"baseColorFactor":[
					0.11927328258752823,
					0.0632803663611412,
					0.05076603218913078,
					1
				],
				"metallicFactor":0,
				"roughnessFactor":0.5
			}
		},
		{
			"doubleSided":true,
			"name":"DarkMetal",
			"pbrMetallicRoughness":{
				"baseColorFactor":[
					0.041473258286714554,
					0.03704424947500229,
					0.060716427862644196,
					1
				],
				"metallicFactor":0,
				"roughnessFactor":0.5
			}
		}
	],
	"meshes":[
		{
			"name":"Cube.003",
			"primitives":[
				{
					"attributes":{
						"POSITION":0,
						"NORMAL":1
					},
					"indices":2,
					"material":0
				},
				{
					"attributes":{
						"POSITION":3,
						"NORMAL":4
					},
					"indices":5,
					"material":1
				},
				{
					"attributes":{
						"POSITION":6,
						"NORMAL":7
					},
					"indices":8,
					"material":2
				}
			]
		}
	],
	"accessors":[
		{
			"bufferView":0,
			"componentType":5126,
			"count":877,
			"max":[
				0.7733569741249084,
				0.8210848569869995,
				1.603854775428772
			],
			"min":[
				-0.7817844152450562,
				-0.005144578404724598,
				-1.699477195739746
			],
			"type":"VEC3"
		},
		{
			"bufferView":1,
			"componentType":5126,
			"count":877,
			"type":"VEC3"
		},
		{
			"bufferView":2,
			"componentType":5123,
			"count":1584,
			"type":"SCALAR"
		},
		{
			"bufferView":3,
			"componentType":5126,
			"count":94,
			"max":[
				0.016253674402832985,
				0.37217432260513306,
				1.5621699094772339
			],
			"min":[
				-0.033669136464595795,
				0.24402564764022827,
				-1.5621699094772339
			],
			"type":"VEC3"
		},
		{
			"bufferView":4,
			"componentType":5126,
			"count":94,
			"type":"VEC3"
		},
		{
			"bufferView":5,
			"componentType":5123,
			"count":156,
			"type":"SCALAR"
		},
		{
			"bufferView":6,
			"componentType":5126,
			"count":644,
			"max":[
				0.7900679111480713,
				0.8488787412643433,
				1.5222564935684204
			],
			"min":[
				-0.7943981885910034,
				0.745559573173523,
				-1.5701637268066406
			],
			"type":"VEC3"
		},
		{
			"bufferView":7,
			"componentType":5126,
			"count":644,
			"type":"VEC3"
		},
		{
			"bufferView":8,
			"componentType":5123,
			"count":1008,
			"type":"SCALAR"
		}
	],
	"bufferViews":[
		{
			"buffer":0,
			"byteLength":10524,
			"byteOffset":0,
			"target":34962
		},
		{
			"buffer":0,
			"byteLength":10524,
			"byteOffset":10524,
			"target":34962
		},
		{
			"buffer":0,
			"byteLength":3168,
			"byteOffset":21048,
			"target":34963
		},
		{
			"buffer":0,
			"byteLength":1128,
			"byteOffset":24216,
			"target":34962
		},
		{
			"buffer":0,
			"byteLength":1128,
			"byteOffset":25344,
			"target":34962
		},
		{
			"buffer":0,
			"byteLength":312,
			"byteOffset":26472,
			"target":34963
		},
		{
			"buffer":0,
			"byteLength":7728,
			"byteOffset":26784,
			"target":34962
		},
		{
			"buffer":0,
			"byteLength":7728,
			"byteOffset":34512,
			"target":34962
		},
		{
			"buffer":0,
			"byteLength":2016,
			"byteOffset":42240,
			"target":34963
		}
	],
	"buffers":[
		{
			"byteLength":44256,
			"uri":"Table_Big-d1a3324a4131679c09131a81eab6ff92.bin"
		}
	]
}
