{
	"asset":{
		"generator":"Khronos glTF Blender I/O v4.4.56",
		"version":"2.0"
	},
	"scene":0,
	"scenes":[
		{
			"name":"Scene",
			"nodes":[
				0
			]
		}
	],
	"nodes":[
		{
			"mesh":0,
			"name":"Table_Small"
		}
	],
	"materials":[
		{
			"doubleSided":true,
			"name":"Wood",
			"pbrMetallicRoughness":{
				"baseColorFactor":[
					0.20189261436462402,
					0.10397916287183762,
					0.07928955554962158,
					1
				],
				"metallicFactor":0,
				"roughnessFactor":0.5
			}
		},
		{
			"doubleSided":true,
			"name":"DarkWood",
			"pbrMetallicRoughness":{
				"baseColorFactor":[
					0.11927328258752823,
					0.0632803663611412,
					0.05076603218913078,
					1
				],
				"metallicFactor":0,
				"roughnessFactor":0.5
			}
		},
		{
			"doubleSided":true,
			"name":"DarkMetal",
			"pbrMetallicRoughness":{
				"baseColorFactor":[
					0.041473258286714554,
					0.03704424947500229,
					0.060716427862644196,
					1
				],
				"metallicFactor":0,
				"roughnessFactor":0.5
			}
		}
	],
	"meshes":[
		{
			"name":"Cube.012",
			"primitives":[
				{
					"attributes":{
						"POSITION":0,
						"NORMAL":1
					},
					"indices":2,
					"material":0
				},
				{
					"attributes":{
						"POSITION":3,
						"NORMAL":4
					},
					"indices":5,
					"material":1
				},
				{
					"attributes":{
						"POSITION":6,
						"NORMAL":7
					},
					"indices":8,
					"material":2
				}
			]
		}
	],
	"accessors":[
		{
			"bufferView":0,
			"componentType":5126,
			"count":783,
			"max":[
				0.6213265061378479,
				0.8210847973823547,
				0.8780323266983032
			],
			"min":[
				-0.6314267516136169,
				-0.005144578870385885,
				-1.1011641025543213
			],
			"type":"VEC3"
		},
		{
			"bufferView":1,
			"componentType":5126,
			"count":783,
			"type":"VEC3"
		},
		{
			"bufferView":2,
			"componentType":5123,
			"count":1416,
			"type":"SCALAR"
		},
		{
			"bufferView":3,
			"componentType":5126,
			"count":94,
			"max":[
				0.016253672540187836,
				0.37217432260513306,
				0.8249503970146179
			],
			"min":[
				-0.033669132739305496,
				0.24402564764022827,
				-1.0170904397964478
			],
			"type":"VEC3"
		},
		{
			"bufferView":4,
			"componentType":5126,
			"count":94,
			"type":"VEC3"
		},
		{
			"bufferView":5,
			"componentType":5123,
			"count":156,
			"type":"SCALAR"
		},
		{
			"bufferView":6,
			"componentType":5126,
			"count":536,
			"max":[
				0.6380375027656555,
				0.8488786220550537,
				0.8465965986251831
			],
			"min":[
				-0.6668888926506042,
				0.7455595135688782,
				-0.971850574016571
			],
			"type":"VEC3"
		},
		{
			"bufferView":7,
			"componentType":5126,
			"count":536,
			"type":"VEC3"
		},
		{
			"bufferView":8,
			"componentType":5123,
			"count":840,
			"type":"SCALAR"
		}
	],
	"bufferViews":[
		{
			"buffer":0,
			"byteLength":9396,
			"byteOffset":0,
			"target":34962
		},
		{
			"buffer":0,
			"byteLength":9396,
			"byteOffset":9396,
			"target":34962
		},
		{
			"buffer":0,
			"byteLength":2832,
			"byteOffset":18792,
			"target":34963
		},
		{
			"buffer":0,
			"byteLength":1128,
			"byteOffset":21624,
			"target":34962
		},
		{
			"buffer":0,
			"byteLength":1128,
			"byteOffset":22752,
			"target":34962
		},
		{
			"buffer":0,
			"byteLength":312,
			"byteOffset":23880,
			"target":34963
		},
		{
			"buffer":0,
			"byteLength":6432,
			"byteOffset":24192,
			"target":34962
		},
		{
			"buffer":0,
			"byteLength":6432,
			"byteOffset":30624,
			"target":34962
		},
		{
			"buffer":0,
			"byteLength":1680,
			"byteOffset":37056,
			"target":34963
		}
	],
	"buffers":[
		{
			"byteLength":38736,
			"uri":"Table_Small-6364d88f343ce847c1fd39c059eb2045.bin"
		}
	]
}
