{
	"asset":{
		"generator":"Khronos glTF Blender I/O v4.4.56",
		"version":"2.0"
	},
	"extensionsUsed":[
		"KHR_lights_punctual"
	],
	"extensionsRequired":[
		"KHR_lights_punctual"
	],
	"extensions":{
		"KHR_lights_punctual":{
			"lights":[
				{
					"color":[
						0.679946780204773,
						0.5133789777755737,
						1
					],
					"intensity":5435.141306588225,
					"spot":{
						"innerConeAngle":0.3337942263919169,
						"outerConeAngle":0.39269909262657166
					},
					"type":"spot",
					"name":"Spot"
				},
				{
					"color":[
						0.8140307664871216,
						0.695759117603302,
						0.6101074814796448
					],
					"intensity":683,
					"type":"directional",
					"name":"Sun.003"
				},
				{
					"color":[
						0.7997235059738159,
						0.7018575668334961,
						1
					],
					"intensity":170.75,
					"type":"directional",
					"name":"Sun.002"
				},
				{
					"color":[
						1,
						1,
						1
					],
					"intensity":683,
					"type":"directional",
					"name":"Sun.000"
				}
			]
		}
	},
	"scene":0,
	"scenes":[
		{
			"name":"Scene",
			"nodes":[
				0,
				1,
				2,
				3,
				4,
				9
			]
		}
	],
	"nodes":[
		{
			"extensions":{
				"KHR_lights_punctual":{
					"light":0
				}
			},
			"name":"Spot",
			"rotation":[
				-0.7071068286895752,
				0,
				0,
				0.7071068286895752
			],
			"scale":[
				0.13585452735424042,
				0.13585451245307922,
				0.13585451245307922
			],
			"translation":[
				8,
				2.3278770446777344,
				0
			]
		},
		{
			"mesh":0,
			"name":"RuneGlow",
			"rotation":[
				0,
				0.19508987665176392,
				0,
				0.9807853698730469
			],
			"scale":[
				0.9502454400062561,
				1,
				0.9502454400062561
			],
			"translation":[
				0,
				0.0017198193818330765,
				0
			]
		},
		{
			"mesh":1,
			"name":"RuneOff",
			"scale":[
				0.9502454400062561,
				1,
				0.9502454400062561
			],
			"translation":[
				8,
				0.0020011384040117264,
				0
			]
		},
		{
			"mesh":2,
			"name":"Plane",
			"scale":[
				4,
				4,
				4
			]
		},
		{
			"mesh":3,
			"name":"Cylinder.000"
		},
		{
			"camera":0,
			"name":"Camera",
			"rotation":[
				-0.23911379277706146,
				0.36967626214027405,
				0.09905432164669037,
				0.892385721206665
			],
			"translation":[
				10.000722885131836,
				8.180004119873047,
				9.999277114868164
			]
		},
		{
			"extensions":{
				"KHR_lights_punctual":{
					"light":1
				}
			},
			"name":"Sun",
			"rotation":[
				-0.5799615979194641,
				-0.13302963972091675,
				-0.09603182226419449,
				0.7979508638381958
			],
			"translation":[
				8.328958511352539,
				11.542717933654785,
				-7.722271919250488
			]
		},
		{
			"extensions":{
				"KHR_lights_punctual":{
					"light":2
				}
			},
			"name":"Sun.001",
			"rotation":[
				-0.03995871543884277,
				0.7200601696968079,
				0.09264397621154785,
				0.686537504196167
			],
			"translation":[
				6.850085735321045,
				11.542717933654785,
				-7.839632511138916
			]
		},
		{
			"extensions":{
				"KHR_lights_punctual":{
					"light":3
				}
			},
			"name":"Sun.002",
			"rotation":[
				-0.6870772838592529,
				-0.347648024559021,
				0.6182199716567993,
				0.15770183503627777
			],
			"translation":[
				7.499129772186279,
				12.033025741577148,
				-6.39048433303833
			]
		},
		{
			"children":[
				5,
				6,
				7,
				8
			],
			"name":"RenderPlatform"
		}
	],
	"cameras":[
		{
			"name":"Camera",
			"orthographic":{
				"xmag":1.3500001430511475,
				"ymag":0.6750000715255737,
				"zfar":100,
				"znear":0.10000000149011612
			},
			"type":"orthographic"
		}
	],
	"animations":[
		{
			"channels":[
				{
					"sampler":0,
					"target":{
						"node":1,
						"path":"translation"
					}
				},
				{
					"sampler":1,
					"target":{
						"node":1,
						"path":"rotation"
					}
				},
				{
					"sampler":2,
					"target":{
						"node":1,
						"path":"scale"
					}
				}
			],
			"name":"RuneGlowAction",
			"samplers":[
				{
					"input":16,
					"interpolation":"STEP",
					"output":17
				},
				{
					"input":18,
					"interpolation":"LINEAR",
					"output":19
				},
				{
					"input":16,
					"interpolation":"STEP",
					"output":20
				}
			]
		}
	],
	"materials":[
		{
			"doubleSided":true,
			"name":"RuneGlow",
			"pbrMetallicRoughness":{
				"baseColorFactor":[
					0.800000011920929,
					0.800000011920929,
					0.800000011920929,
					1
				],
				"metallicFactor":0,
				"roughnessFactor":0.5
			}
		},
		{
			"doubleSided":true,
			"name":"Rune",
			"pbrMetallicRoughness":{
				"baseColorFactor":[
					0.800000011920929,
					0.800000011920929,
					0.800000011920929,
					1
				],
				"metallicFactor":0,
				"roughnessFactor":0.5
			}
		},
		{
			"doubleSided":true,
			"name":"Blank",
			"pbrMetallicRoughness":{
				"baseColorFactor":[
					0.800000011920929,
					0.800000011920929,
					0.800000011920929,
					1
				],
				"metallicFactor":0,
				"roughnessFactor":0.5
			}
		},
		{
			"doubleSided":true,
			"name":"TeleporterMat",
			"pbrMetallicRoughness":{
				"baseColorFactor":[
					0.800000011920929,
					0.800000011920929,
					0.800000011920929,
					1
				],
				"metallicFactor":0,
				"roughnessFactor":0.5
			}
		}
	],
	"meshes":[
		{
			"name":"Plane.002",
			"primitives":[
				{
					"attributes":{
						"POSITION":0,
						"NORMAL":1,
						"TEXCOORD_0":2,
						"TANGENT":3
					},
					"indices":4,
					"material":0
				}
			]
		},
		{
			"name":"Plane.001",
			"primitives":[
				{
					"attributes":{
						"POSITION":5,
						"NORMAL":6,
						"TEXCOORD_0":7,
						"TANGENT":8
					},
					"indices":4,
					"material":1
				}
			]
		},
		{
			"name":"ShadowPlane",
			"primitives":[
				{
					"attributes":{
						"POSITION":9,
						"NORMAL":10
					},
					"indices":4,
					"material":2
				}
			]
		},
		{
			"name":"TeleportCircle",
			"primitives":[
				{
					"attributes":{
						"POSITION":11,
						"NORMAL":12,
						"TEXCOORD_0":13,
						"TANGENT":14
					},
					"indices":15,
					"material":3
				}
			]
		}
	],
	"accessors":[
		{
			"bufferView":0,
			"componentType":5126,
			"count":4,
			"max":[
				0.526179850101471,
				0.18329033255577087,
				0.526179850101471
			],
			"min":[
				-0.526179850101471,
				0.18329033255577087,
				-0.526179850101471
			],
			"type":"VEC3"
		},
		{
			"bufferView":1,
			"componentType":5126,
			"count":4,
			"type":"VEC3"
		},
		{
			"bufferView":2,
			"componentType":5126,
			"count":4,
			"type":"VEC2"
		},
		{
			"bufferView":3,
			"componentType":5126,
			"count":4,
			"type":"VEC4"
		},
		{
			"bufferView":4,
			"componentType":5123,
			"count":6,
			"type":"SCALAR"
		},
		{
			"bufferView":5,
			"componentType":5126,
			"count":4,
			"max":[
				0.526179850101471,
				0.18329033255577087,
				0.526179850101471
			],
			"min":[
				-0.526179850101471,
				0.18329033255577087,
				-0.526179850101471
			],
			"type":"VEC3"
		},
		{
			"bufferView":6,
			"componentType":5126,
			"count":4,
			"type":"VEC3"
		},
		{
			"bufferView":7,
			"componentType":5126,
			"count":4,
			"type":"VEC2"
		},
		{
			"bufferView":8,
			"componentType":5126,
			"count":4,
			"type":"VEC4"
		},
		{
			"bufferView":9,
			"componentType":5126,
			"count":4,
			"max":[
				1,
				0,
				1
			],
			"min":[
				-1,
				0,
				-1
			],
			"type":"VEC3"
		},
		{
			"bufferView":10,
			"componentType":5126,
			"count":4,
			"type":"VEC3"
		},
		{
			"bufferView":11,
			"componentType":5126,
			"count":2048,
			"max":[
				0.9908884763717651,
				0.1805545836687088,
				0.9908917546272278
			],
			"min":[
				-1.0003947019577026,
				0.005504727363586426,
				-0.9908916354179382
			],
			"type":"VEC3"
		},
		{
			"bufferView":12,
			"componentType":5126,
			"count":2048,
			"type":"VEC3"
		},
		{
			"bufferView":13,
			"componentType":5126,
			"count":2048,
			"type":"VEC2"
		},
		{
			"bufferView":14,
			"componentType":5126,
			"count":2048,
			"type":"VEC4"
		},
		{
			"bufferView":15,
			"componentType":5123,
			"count":3024,
			"type":"SCALAR"
		},
		{
			"bufferView":16,
			"componentType":5126,
			"count":2,
			"max":[
				0.06666666666666667
			],
			"min":[
				0.016666666666666666
			],
			"type":"SCALAR"
		},
		{
			"bufferView":17,
			"componentType":5126,
			"count":2,
			"type":"VEC3"
		},
		{
			"bufferView":18,
			"componentType":5126,
			"count":4,
			"max":[
				0.06666666666666667
			],
			"min":[
				0.016666666666666666
			],
			"type":"SCALAR"
		},
		{
			"bufferView":19,
			"componentType":5126,
			"count":4,
			"type":"VEC4"
		},
		{
			"bufferView":20,
			"componentType":5126,
			"count":2,
			"type":"VEC3"
		}
	],
	"bufferViews":[
		{
			"buffer":0,
			"byteLength":48,
			"byteOffset":0,
			"target":34962
		},
		{
			"buffer":0,
			"byteLength":48,
			"byteOffset":48,
			"target":34962
		},
		{
			"buffer":0,
			"byteLength":32,
			"byteOffset":96,
			"target":34962
		},
		{
			"buffer":0,
			"byteLength":64,
			"byteOffset":128,
			"target":34962
		},
		{
			"buffer":0,
			"byteLength":12,
			"byteOffset":192,
			"target":34963
		},
		{
			"buffer":0,
			"byteLength":48,
			"byteOffset":204,
			"target":34962
		},
		{
			"buffer":0,
			"byteLength":48,
			"byteOffset":252,
			"target":34962
		},
		{
			"buffer":0,
			"byteLength":32,
			"byteOffset":300,
			"target":34962
		},
		{
			"buffer":0,
			"byteLength":64,
			"byteOffset":332,
			"target":34962
		},
		{
			"buffer":0,
			"byteLength":48,
			"byteOffset":396,
			"target":34962
		},
		{
			"buffer":0,
			"byteLength":48,
			"byteOffset":444,
			"target":34962
		},
		{
			"buffer":0,
			"byteLength":24576,
			"byteOffset":492,
			"target":34962
		},
		{
			"buffer":0,
			"byteLength":24576,
			"byteOffset":25068,
			"target":34962
		},
		{
			"buffer":0,
			"byteLength":16384,
			"byteOffset":49644,
			"target":34962
		},
		{
			"buffer":0,
			"byteLength":32768,
			"byteOffset":66028,
			"target":34962
		},
		{
			"buffer":0,
			"byteLength":6048,
			"byteOffset":98796,
			"target":34963
		},
		{
			"buffer":0,
			"byteLength":8,
			"byteOffset":104844
		},
		{
			"buffer":0,
			"byteLength":24,
			"byteOffset":104852
		},
		{
			"buffer":0,
			"byteLength":16,
			"byteOffset":104876
		},
		{
			"buffer":0,
			"byteLength":64,
			"byteOffset":104892
		},
		{
			"buffer":0,
			"byteLength":24,
			"byteOffset":104956
		}
	],
	"buffers":[
		{
			"byteLength":104980,
			"uri":"teleporter-9cb58ad219aec66b48f679745e6042fd.bin"
		}
	]
}
