{
	"asset":{
		"generator":"Khronos glTF Blender I/O v4.4.56",
		"version":"2.0"
	},
	"scene":0,
	"scenes":[
		{
			"name":"Scene",
			"nodes":[
				0
			]
		}
	],
	"nodes":[
		{
			"mesh":0,
			"name":"Trapdoor"
		}
	],
	"materials":[
		{
			"doubleSided":true,
			"name":"Metal",
			"pbrMetallicRoughness":{
				"baseColorFactor":[
					0.07698974758386612,
					0.06832612305879593,
					0.11493299156427383,
					1
				],
				"metallicFactor":0,
				"roughnessFactor":0.5
			}
		},
		{
			"doubleSided":true,
			"name":"DarkMetal",
			"pbrMetallicRoughness":{
				"baseColorFactor":[
					0.041473258286714554,
					0.03704424947500229,
					0.060716427862644196,
					1
				],
				"metallicFactor":0,
				"roughnessFactor":0.5
			}
		},
		{
			"doubleSided":true,
			"name":"Wood",
			"pbrMetallicRoughness":{
				"baseColorFactor":[
					0.20189261436462402,
					0.10397916287183762,
					0.07928955554962158,
					1
				],
				"metallicFactor":0,
				"roughnessFactor":0.5
			}
		},
		{
			"doubleSided":true,
			"name":"DarkWood",
			"pbrMetallicRoughness":{
				"baseColorFactor":[
					0.11927328258752823,
					0.0632803663611412,
					0.05076603218913078,
					1
				],
				"metallicFactor":0,
				"roughnessFactor":0.5
			}
		}
	],
	"meshes":[
		{
			"name":"Cylinder.006",
			"primitives":[
				{
					"attributes":{
						"POSITION":0,
						"NORMAL":1
					},
					"indices":2,
					"material":0
				},
				{
					"attributes":{
						"POSITION":3,
						"NORMAL":4
					},
					"indices":5,
					"material":1
				},
				{
					"attributes":{
						"POSITION":6,
						"NORMAL":7
					},
					"indices":8,
					"material":2
				},
				{
					"attributes":{
						"POSITION":9,
						"NORMAL":10
					},
					"indices":11,
					"material":3
				}
			]
		}
	],
	"accessors":[
		{
			"bufferView":0,
			"componentType":5126,
			"count":260,
			"max":[
				0.5208180546760559,
				0.16631029546260834,
				0.5675700306892395
			],
			"min":[
				-0.5322427153587341,
				-0.024363450706005096,
				-0.47440412640571594
			],
			"type":"VEC3"
		},
		{
			"bufferView":1,
			"componentType":5126,
			"count":260,
			"type":"VEC3"
		},
		{
			"bufferView":2,
			"componentType":5123,
			"count":372,
			"type":"SCALAR"
		},
		{
			"bufferView":3,
			"componentType":5126,
			"count":216,
			"max":[
				0.23346281051635742,
				0.09895028173923492,
				0.4423286020755768
			],
			"min":[
				-0.2295568436384201,
				0.03356320783495903,
				-0.013656878843903542
			],
			"type":"VEC3"
		},
		{
			"bufferView":4,
			"componentType":5126,
			"count":216,
			"type":"VEC3"
		},
		{
			"bufferView":5,
			"componentType":5123,
			"count":324,
			"type":"SCALAR"
		},
		{
			"bufferView":6,
			"componentType":5126,
			"count":266,
			"max":[
				0.7134913206100464,
				0.07678478956222534,
				0.6124848127365112
			],
			"min":[
				-0.7142575979232788,
				-0.013040073215961456,
				-0.5813966393470764
			],
			"type":"VEC3"
		},
		{
			"bufferView":7,
			"componentType":5126,
			"count":266,
			"type":"VEC3"
		},
		{
			"bufferView":8,
			"componentType":5123,
			"count":408,
			"type":"SCALAR"
		},
		{
			"bufferView":9,
			"componentType":5126,
			"count":258,
			"max":[
				0.8725886344909668,
				0.030720435082912445,
				0.8499468564987183
			],
			"min":[
				-0.8686827421188354,
				-0.048840150237083435,
				-0.8500620722770691
			],
			"type":"VEC3"
		},
		{
			"bufferView":10,
			"componentType":5126,
			"count":258,
			"type":"VEC3"
		},
		{
			"bufferView":11,
			"componentType":5123,
			"count":408,
			"type":"SCALAR"
		}
	],
	"bufferViews":[
		{
			"buffer":0,
			"byteLength":3120,
			"byteOffset":0,
			"target":34962
		},
		{
			"buffer":0,
			"byteLength":3120,
			"byteOffset":3120,
			"target":34962
		},
		{
			"buffer":0,
			"byteLength":744,
			"byteOffset":6240,
			"target":34963
		},
		{
			"buffer":0,
			"byteLength":2592,
			"byteOffset":6984,
			"target":34962
		},
		{
			"buffer":0,
			"byteLength":2592,
			"byteOffset":9576,
			"target":34962
		},
		{
			"buffer":0,
			"byteLength":648,
			"byteOffset":12168,
			"target":34963
		},
		{
			"buffer":0,
			"byteLength":3192,
			"byteOffset":12816,
			"target":34962
		},
		{
			"buffer":0,
			"byteLength":3192,
			"byteOffset":16008,
			"target":34962
		},
		{
			"buffer":0,
			"byteLength":816,
			"byteOffset":19200,
			"target":34963
		},
		{
			"buffer":0,
			"byteLength":3096,
			"byteOffset":20016,
			"target":34962
		},
		{
			"buffer":0,
			"byteLength":3096,
			"byteOffset":23112,
			"target":34962
		},
		{
			"buffer":0,
			"byteLength":816,
			"byteOffset":26208,
			"target":34963
		}
	],
	"buffers":[
		{
			"byteLength":27024,
			"uri":"Trapdoor-7a6334e1cb7fc7795122dfa3a2320841.bin"
		}
	]
}
