{
	"asset":{
		"generator":"Khronos glTF Blender I/O v4.4.56",
		"version":"2.0"
	},
	"scene":0,
	"scenes":[
		{
			"name":"Scene",
			"nodes":[
				0
			]
		}
	],
	"nodes":[
		{
			"mesh":0,
			"name":"Trapdoor_open"
		}
	],
	"materials":[
		{
			"doubleSided":true,
			"name":"Metal",
			"pbrMetallicRoughness":{
				"baseColorFactor":[
					0.07698974758386612,
					0.06832612305879593,
					0.11493299156427383,
					1
				],
				"metallicFactor":0,
				"roughnessFactor":0.5
			}
		},
		{
			"doubleSided":true,
			"name":"DarkMetal",
			"pbrMetallicRoughness":{
				"baseColorFactor":[
					0.041473258286714554,
					0.03704424947500229,
					0.060716427862644196,
					1
				],
				"metallicFactor":0,
				"roughnessFactor":0.5
			}
		},
		{
			"doubleSided":true,
			"name":"Wood",
			"pbrMetallicRoughness":{
				"baseColorFactor":[
					0.20189261436462402,
					0.10397916287183762,
					0.07928955554962158,
					1
				],
				"metallicFactor":0,
				"roughnessFactor":0.5
			}
		},
		{
			"doubleSided":true,
			"name":"DarkWood",
			"pbrMetallicRoughness":{
				"baseColorFactor":[
					0.11927328258752823,
					0.0632803663611412,
					0.05076603218913078,
					1
				],
				"metallicFactor":0,
				"roughnessFactor":0.5
			}
		}
	],
	"meshes":[
		{
			"name":"Cylinder.008",
			"primitives":[
				{
					"attributes":{
						"POSITION":0,
						"NORMAL":1
					},
					"indices":2,
					"material":0
				},
				{
					"attributes":{
						"POSITION":3,
						"NORMAL":4
					},
					"indices":5,
					"material":1
				},
				{
					"attributes":{
						"POSITION":6,
						"NORMAL":7
					},
					"indices":8,
					"material":2
				},
				{
					"attributes":{
						"POSITION":9,
						"NORMAL":10
					},
					"indices":11,
					"material":3
				}
			]
		}
	],
	"accessors":[
		{
			"bufferView":0,
			"componentType":5126,
			"count":300,
			"max":[
				0.5208179950714111,
				0.07257991284132004,
				-0.726730227470398
			],
			"min":[
				-0.532242476940155,
				-0.1312108188867569,
				-1.7524919509887695
			],
			"type":"VEC3"
		},
		{
			"bufferView":1,
			"componentType":5126,
			"count":300,
			"type":"VEC3"
		},
		{
			"bufferView":2,
			"componentType":5123,
			"count":444,
			"type":"SCALAR"
		},
		{
			"bufferView":3,
			"componentType":5126,
			"count":216,
			"max":[
				0.23346282541751862,
				0.0015157219022512436,
				-1.1873911619186401
			],
			"min":[
				-0.22955681383609772,
				-0.06441044062376022,
				-1.6434519290924072
			],
			"type":"VEC3"
		},
		{
			"bufferView":4,
			"componentType":5126,
			"count":216,
			"type":"VEC3"
		},
		{
			"bufferView":5,
			"componentType":5123,
			"count":324,
			"type":"SCALAR"
		},
		{
			"bufferView":6,
			"componentType":5126,
			"count":314,
			"max":[
				0.7134913206100464,
				0.06323764473199844,
				-0.6196478009223938
			],
			"min":[
				-0.714257538318634,
				-0.043081022799015045,
				-1.8135654926300049
			],
			"type":"VEC3"
		},
		{
			"bufferView":7,
			"componentType":5126,
			"count":314,
			"type":"VEC3"
		},
		{
			"bufferView":8,
			"componentType":5123,
			"count":516,
			"type":"SCALAR"
		},
		{
			"bufferView":9,
			"componentType":5126,
			"count":258,
			"max":[
				0.8725886344909668,
				0.030720435082912445,
				0.8499468564987183
			],
			"min":[
				-0.8686827421188354,
				-0.048840150237083435,
				-0.8500620722770691
			],
			"type":"VEC3"
		},
		{
			"bufferView":10,
			"componentType":5126,
			"count":258,
			"type":"VEC3"
		},
		{
			"bufferView":11,
			"componentType":5123,
			"count":408,
			"type":"SCALAR"
		}
	],
	"bufferViews":[
		{
			"buffer":0,
			"byteLength":3600,
			"byteOffset":0,
			"target":34962
		},
		{
			"buffer":0,
			"byteLength":3600,
			"byteOffset":3600,
			"target":34962
		},
		{
			"buffer":0,
			"byteLength":888,
			"byteOffset":7200,
			"target":34963
		},
		{
			"buffer":0,
			"byteLength":2592,
			"byteOffset":8088,
			"target":34962
		},
		{
			"buffer":0,
			"byteLength":2592,
			"byteOffset":10680,
			"target":34962
		},
		{
			"buffer":0,
			"byteLength":648,
			"byteOffset":13272,
			"target":34963
		},
		{
			"buffer":0,
			"byteLength":3768,
			"byteOffset":13920,
			"target":34962
		},
		{
			"buffer":0,
			"byteLength":3768,
			"byteOffset":17688,
			"target":34962
		},
		{
			"buffer":0,
			"byteLength":1032,
			"byteOffset":21456,
			"target":34963
		},
		{
			"buffer":0,
			"byteLength":3096,
			"byteOffset":22488,
			"target":34962
		},
		{
			"buffer":0,
			"byteLength":3096,
			"byteOffset":25584,
			"target":34962
		},
		{
			"buffer":0,
			"byteLength":816,
			"byteOffset":28680,
			"target":34963
		}
	],
	"buffers":[
		{
			"byteLength":29496,
			"uri":"Trapdoor_open-389108b0288f4d5271c88472005d35ee.bin"
		}
	]
}
