{
	"asset":{
		"generator":"Khronos glTF Blender I/O v4.4.56",
		"version":"2.0"
	},
	"scene":0,
	"scenes":[
		{
			"name":"Scene",
			"nodes":[
				0
			]
		}
	],
	"nodes":[
		{
			"mesh":0,
			"name":"Trap_spikes"
		}
	],
	"materials":[
		{
			"doubleSided":true,
			"name":"Metal",
			"pbrMetallicRoughness":{
				"baseColorFactor":[
					0.07698974758386612,
					0.06832612305879593,
					0.11493299156427383,
					1
				],
				"metallicFactor":0,
				"roughnessFactor":0.5
			}
		},
		{
			"doubleSided":true,
			"name":"DarkMetal",
			"pbrMetallicRoughness":{
				"baseColorFactor":[
					0.041473258286714554,
					0.03704424947500229,
					0.060716427862644196,
					1
				],
				"metallicFactor":0,
				"roughnessFactor":0.5
			}
		}
	],
	"meshes":[
		{
			"name":"Cube.051",
			"primitives":[
				{
					"attributes":{
						"POSITION":0,
						"NORMAL":1
					},
					"indices":2,
					"material":0
				},
				{
					"attributes":{
						"POSITION":3,
						"NORMAL":4
					},
					"indices":5,
					"material":1
				}
			]
		}
	],
	"accessors":[
		{
			"bufferView":0,
			"componentType":5126,
			"count":2222,
			"max":[
				0.9946134090423584,
				0.12185753136873245,
				0.9946134090423584
			],
			"min":[
				-0.9946134090423584,
				-0.002955824136734009,
				-0.9946134090423584
			],
			"type":"VEC3"
		},
		{
			"bufferView":1,
			"componentType":5126,
			"count":2222,
			"type":"VEC3"
		},
		{
			"bufferView":2,
			"componentType":5123,
			"count":5232,
			"type":"SCALAR"
		},
		{
			"bufferView":3,
			"componentType":5126,
			"count":864,
			"max":[
				0.8822669386863708,
				1.169881820678711,
				0.8822669386863708
			],
			"min":[
				-0.8822669386863708,
				0.044298164546489716,
				-0.8822669386863708
			],
			"type":"VEC3"
		},
		{
			"bufferView":4,
			"componentType":5126,
			"count":864,
			"type":"VEC3"
		},
		{
			"bufferView":5,
			"componentType":5123,
			"count":864,
			"type":"SCALAR"
		}
	],
	"bufferViews":[
		{
			"buffer":0,
			"byteLength":26664,
			"byteOffset":0,
			"target":34962
		},
		{
			"buffer":0,
			"byteLength":26664,
			"byteOffset":26664,
			"target":34962
		},
		{
			"buffer":0,
			"byteLength":10464,
			"byteOffset":53328,
			"target":34963
		},
		{
			"buffer":0,
			"byteLength":10368,
			"byteOffset":63792,
			"target":34962
		},
		{
			"buffer":0,
			"byteLength":10368,
			"byteOffset":74160,
			"target":34962
		},
		{
			"buffer":0,
			"byteLength":1728,
			"byteOffset":84528,
			"target":34963
		}
	],
	"buffers":[
		{
			"byteLength":86256,
			"uri":"Trap_spikes-16afa329868de85a0461512bdb4dbca8.bin"
		}
	]
}
