{
	"asset":{
		"generator":"Khronos glTF Blender I/O v4.4.56",
		"version":"2.0"
	},
	"scene":0,
	"scenes":[
		{
			"name":"Scene",
			"nodes":[
				0
			]
		}
	],
	"nodes":[
		{
			"mesh":0,
			"name":"Trap_empty"
		}
	],
	"materials":[
		{
			"doubleSided":true,
			"name":"Metal",
			"pbrMetallicRoughness":{
				"baseColorFactor":[
					0.07698974758386612,
					0.06832612305879593,
					0.11493299156427383,
					1
				],
				"metallicFactor":0,
				"roughnessFactor":0.5
			}
		}
	],
	"meshes":[
		{
			"name":"Cube.051",
			"primitives":[
				{
					"attributes":{
						"POSITION":0,
						"NORMAL":1
					},
					"indices":2,
					"material":0
				}
			]
		}
	],
	"accessors":[
		{
			"bufferView":0,
			"componentType":5126,
			"count":1970,
			"max":[
				0.9946134090423584,
				0.12185753136873245,
				0.9946134090423584
			],
			"min":[
				-0.9946134090423584,
				-0.002955824136734009,
				-0.9946134090423584
			],
			"type":"VEC3"
		},
		{
			"bufferView":1,
			"componentType":5126,
			"count":1970,
			"type":"VEC3"
		},
		{
			"bufferView":2,
			"componentType":5123,
			"count":4368,
			"type":"SCALAR"
		}
	],
	"bufferViews":[
		{
			"buffer":0,
			"byteLength":23640,
			"byteOffset":0,
			"target":34962
		},
		{
			"buffer":0,
			"byteLength":23640,
			"byteOffset":23640,
			"target":34962
		},
		{
			"buffer":0,
			"byteLength":8736,
			"byteOffset":47280,
			"target":34963
		}
	],
	"buffers":[
		{
			"byteLength":56016,
			"uri":"Trap_empty-3a24d5817e51e216e08a94d6463b7fac.bin"
		}
	]
}
