{
	"asset":{
		"generator":"Khronos glTF Blender I/O v4.4.56",
		"version":"2.0"
	},
	"scene":0,
	"scenes":[
		{
			"name":"Scene",
			"nodes":[
				0
			]
		}
	],
	"nodes":[
		{
			"mesh":0,
			"name":"WallCover_Modular"
		}
	],
	"materials":[
		{
			"doubleSided":true,
			"name":"Grey_Floor",
			"pbrMetallicRoughness":{
				"baseColorFactor":[
					0.07406579703092575,
					0.07146592438220978,
					0.10246681421995163,
					1
				],
				"metallicFactor":0,
				"roughnessFactor":0.5
			}
		}
	],
	"meshes":[
		{
			"name":"Cube.017",
			"primitives":[
				{
					"attributes":{
						"POSITION":0,
						"NORMAL":1
					},
					"indices":2,
					"material":0
				}
			]
		}
	],
	"accessors":[
		{
			"bufferView":0,
			"componentType":5126,
			"count":496,
			"max":[
				1.005811095237732,
				-0.5781272053718567,
				0.25459393858909607
			],
			"min":[
				-1.0043485164642334,
				-1.0097757577896118,
				-0.25459393858909607
			],
			"type":"VEC3"
		},
		{
			"bufferView":1,
			"componentType":5126,
			"count":496,
			"type":"VEC3"
		},
		{
			"bufferView":2,
			"componentType":5123,
			"count":840,
			"type":"SCALAR"
		}
	],
	"bufferViews":[
		{
			"buffer":0,
			"byteLength":5952,
			"byteOffset":0,
			"target":34962
		},
		{
			"buffer":0,
			"byteLength":5952,
			"byteOffset":5952,
			"target":34962
		},
		{
			"buffer":0,
			"byteLength":1680,
			"byteOffset":11904,
			"target":34963
		}
	],
	"buffers":[
		{
			"byteLength":13584,
			"uri":"WallCover_Modular-83aff1b87f25cbe4d047b9a14601ff41.bin"
		}
	]
}
