{
	"asset":{
		"generator":"Khronos glTF Blender I/O v4.4.56",
		"version":"2.0"
	},
	"scene":0,
	"scenes":[
		{
			"name":"Scene",
			"nodes":[
				0
			]
		}
	],
	"nodes":[
		{
			"mesh":0,
			"name":"Wall_1"
		}
	],
	"materials":[
		{
			"doubleSided":true,
			"name":"Material.012",
			"pbrMetallicRoughness":{
				"metallicFactor":0,
				"roughnessFactor":0.6000000238418579
			}
		}
	],
	"meshes":[
		{
			"name":"Cube.116",
			"primitives":[
				{
					"attributes":{
						"POSITION":0,
						"NORMAL":1,
						"TEXCOORD_0":2,
						"TANGENT":3
					},
					"indices":4,
					"material":0
				}
			]
		}
	],
	"accessors":[
		{
			"bufferView":0,
			"componentType":5126,
			"count":544,
			"max":[
				1.0000382661819458,
				2,
				0.040355704724788666
			],
			"min":[
				-1.0000383853912354,
				-7.549783020976975e-09,
				-0.1000000461935997
			],
			"type":"VEC3"
		},
		{
			"bufferView":1,
			"componentType":5126,
			"count":544,
			"type":"VEC3"
		},
		{
			"bufferView":2,
			"componentType":5126,
			"count":544,
			"type":"VEC2"
		},
		{
			"bufferView":3,
			"componentType":5126,
			"count":544,
			"type":"VEC4"
		},
		{
			"bufferView":4,
			"componentType":5123,
			"count":816,
			"type":"SCALAR"
		}
	],
	"bufferViews":[
		{
			"buffer":0,
			"byteLength":6528,
			"byteOffset":0,
			"target":34962
		},
		{
			"buffer":0,
			"byteLength":6528,
			"byteOffset":6528,
			"target":34962
		},
		{
			"buffer":0,
			"byteLength":4352,
			"byteOffset":13056,
			"target":34962
		},
		{
			"buffer":0,
			"byteLength":8704,
			"byteOffset":17408,
			"target":34962
		},
		{
			"buffer":0,
			"byteLength":1632,
			"byteOffset":26112,
			"target":34963
		}
	],
	"buffers":[
		{
			"byteLength":27744,
			"uri":"Wall_1-b2311ba3621377142ae59fe6fab19350.bin"
		}
	]
}
