{
	"asset":{
		"generator":"Khronos glTF Blender I/O v4.4.56",
		"version":"2.0"
	},
	"scene":0,
	"scenes":[
		{
			"name":"Scene",
			"nodes":[
				0
			]
		}
	],
	"nodes":[
		{
			"mesh":0,
			"name":"Wall_Archway_Door"
		}
	],
	"materials":[
		{
			"doubleSided":true,
			"name":"Material.015",
			"pbrMetallicRoughness":{
				"metallicFactor":0,
				"roughnessFactor":0.6000000238418579
			}
		}
	],
	"meshes":[
		{
			"name":"Cube.009",
			"primitives":[
				{
					"attributes":{
						"POSITION":0,
						"NORMAL":1,
						"TEXCOORD_0":2
					},
					"indices":3,
					"material":0
				}
			]
		}
	],
	"accessors":[
		{
			"bufferView":0,
			"componentType":5126,
			"count":1569,
			"max":[
				1.0000382661819458,
				2,
				0.1054314598441124
			],
			"min":[
				-1.0000383853912354,
				-0.00023895502090454102,
				-0.1000000461935997
			],
			"type":"VEC3"
		},
		{
			"bufferView":1,
			"componentType":5126,
			"count":1569,
			"type":"VEC3"
		},
		{
			"bufferView":2,
			"componentType":5126,
			"count":1569,
			"type":"VEC2"
		},
		{
			"bufferView":3,
			"componentType":5123,
			"count":2367,
			"type":"SCALAR"
		}
	],
	"bufferViews":[
		{
			"buffer":0,
			"byteLength":18828,
			"byteOffset":0,
			"target":34962
		},
		{
			"buffer":0,
			"byteLength":18828,
			"byteOffset":18828,
			"target":34962
		},
		{
			"buffer":0,
			"byteLength":12552,
			"byteOffset":37656,
			"target":34962
		},
		{
			"buffer":0,
			"byteLength":4734,
			"byteOffset":50208,
			"target":34963
		}
	],
	"buffers":[
		{
			"byteLength":54944,
			"uri":"Wall_Archway_Door-4b03c3c83f9c983ce5cf5b268d2ad0ca.bin"
		}
	]
}
