{
	"asset":{
		"generator":"Khronos glTF Blender I/O v4.4.56",
		"version":"2.0"
	},
	"scene":0,
	"scenes":[
		{
			"name":"Scene",
			"nodes":[
				0
			]
		}
	],
	"nodes":[
		{
			"mesh":0,
			"name":"Wall_Modular"
		}
	],
	"materials":[
		{
			"doubleSided":true,
			"name":"Wall_Dark",
			"pbrMetallicRoughness":{
				"baseColorFactor":[
					0.1959855854511261,
					0.1467834860086441,
					0.09551643580198288,
					1
				],
				"metallicFactor":0,
				"roughnessFactor":0.5
			}
		},
		{
			"doubleSided":true,
			"name":"Wall_Medium",
			"pbrMetallicRoughness":{
				"baseColorFactor":[
					0.1844661384820938,
					0.12507793307304382,
					0.07708120346069336,
					1
				],
				"metallicFactor":0,
				"roughnessFactor":0.5
			}
		},
		{
			"doubleSided":true,
			"name":"Wall_Highlights",
			"pbrMetallicRoughness":{
				"baseColorFactor":[
					0.28100576996803284,
					0.22051137685775757,
					0.1552169919013977,
					1
				],
				"metallicFactor":0,
				"roughnessFactor":0.5
			}
		}
	],
	"meshes":[
		{
			"name":"Cube.005",
			"primitives":[
				{
					"attributes":{
						"POSITION":0,
						"NORMAL":1
					},
					"indices":2,
					"material":0
				},
				{
					"attributes":{
						"POSITION":3,
						"NORMAL":4
					},
					"indices":5,
					"material":1
				},
				{
					"attributes":{
						"POSITION":6,
						"NORMAL":7
					},
					"indices":8,
					"material":2
				}
			]
		}
	],
	"accessors":[
		{
			"bufferView":0,
			"componentType":5126,
			"count":2050,
			"max":[
				1.000929594039917,
				1.0033104419708252,
				0.21903616189956665
			],
			"min":[
				-0.9998083710670471,
				-1.0020835399627686,
				-0.21903616189956665
			],
			"type":"VEC3"
		},
		{
			"bufferView":1,
			"componentType":5126,
			"count":2050,
			"type":"VEC3"
		},
		{
			"bufferView":2,
			"componentType":5123,
			"count":3294,
			"type":"SCALAR"
		},
		{
			"bufferView":3,
			"componentType":5126,
			"count":542,
			"max":[
				0.9970337152481079,
				0.6856414079666138,
				0.18381071090698242
			],
			"min":[
				-0.6247214078903198,
				-0.6404520869255066,
				-0.18381071090698242
			],
			"type":"VEC3"
		},
		{
			"bufferView":4,
			"componentType":5126,
			"count":542,
			"type":"VEC3"
		},
		{
			"bufferView":5,
			"componentType":5123,
			"count":864,
			"type":"SCALAR"
		},
		{
			"bufferView":6,
			"componentType":5126,
			"count":586,
			"max":[
				1.000929594039917,
				1.0033103227615356,
				0.21903610229492188
			],
			"min":[
				-0.9998083710670471,
				-1.0020835399627686,
				-0.21903610229492188
			],
			"type":"VEC3"
		},
		{
			"bufferView":7,
			"componentType":5126,
			"count":586,
			"type":"VEC3"
		},
		{
			"bufferView":8,
			"componentType":5123,
			"count":858,
			"type":"SCALAR"
		}
	],
	"bufferViews":[
		{
			"buffer":0,
			"byteLength":24600,
			"byteOffset":0,
			"target":34962
		},
		{
			"buffer":0,
			"byteLength":24600,
			"byteOffset":24600,
			"target":34962
		},
		{
			"buffer":0,
			"byteLength":6588,
			"byteOffset":49200,
			"target":34963
		},
		{
			"buffer":0,
			"byteLength":6504,
			"byteOffset":55788,
			"target":34962
		},
		{
			"buffer":0,
			"byteLength":6504,
			"byteOffset":62292,
			"target":34962
		},
		{
			"buffer":0,
			"byteLength":1728,
			"byteOffset":68796,
			"target":34963
		},
		{
			"buffer":0,
			"byteLength":7032,
			"byteOffset":70524,
			"target":34962
		},
		{
			"buffer":0,
			"byteLength":7032,
			"byteOffset":77556,
			"target":34962
		},
		{
			"buffer":0,
			"byteLength":1716,
			"byteOffset":84588,
			"target":34963
		}
	],
	"buffers":[
		{
			"byteLength":86304,
			"uri":"Wall_Modular-56d2ee385634eaafa59b90d74be1e220.bin"
		}
	]
}
