{
	"asset":{
		"generator":"Khronos glTF Blender I/O v4.4.56",
		"version":"2.0"
	},
	"scene":0,
	"scenes":[
		{
			"name":"Scene",
			"nodes":[
				0
			]
		}
	],
	"nodes":[
		{
			"mesh":0,
			"name":"Wall_2"
		}
	],
	"materials":[
		{
			"doubleSided":true,
			"name":"Material.013",
			"pbrMetallicRoughness":{
				"metallicFactor":0,
				"roughnessFactor":0.6000000238418579
			}
		}
	],
	"meshes":[
		{
			"name":"Cube.120",
			"primitives":[
				{
					"attributes":{
						"POSITION":0,
						"NORMAL":1,
						"TEXCOORD_0":2,
						"TANGENT":3
					},
					"indices":4,
					"material":0
				}
			]
		}
	],
	"accessors":[
		{
			"bufferView":0,
			"componentType":5126,
			"count":464,
			"max":[
				1.0000382661819458,
				2,
				0.040355704724788666
			],
			"min":[
				-1.0000383853912354,
				-7.549783020976975e-09,
				-0.1000000461935997
			],
			"type":"VEC3"
		},
		{
			"bufferView":1,
			"componentType":5126,
			"count":464,
			"type":"VEC3"
		},
		{
			"bufferView":2,
			"componentType":5126,
			"count":464,
			"type":"VEC2"
		},
		{
			"bufferView":3,
			"componentType":5126,
			"count":464,
			"type":"VEC4"
		},
		{
			"bufferView":4,
			"componentType":5123,
			"count":696,
			"type":"SCALAR"
		}
	],
	"bufferViews":[
		{
			"buffer":0,
			"byteLength":5568,
			"byteOffset":0,
			"target":34962
		},
		{
			"buffer":0,
			"byteLength":5568,
			"byteOffset":5568,
			"target":34962
		},
		{
			"buffer":0,
			"byteLength":3712,
			"byteOffset":11136,
			"target":34962
		},
		{
			"buffer":0,
			"byteLength":7424,
			"byteOffset":14848,
			"target":34962
		},
		{
			"buffer":0,
			"byteLength":1392,
			"byteOffset":22272,
			"target":34963
		}
	],
	"buffers":[
		{
			"byteLength":23664,
			"uri":"Wall_2-c0ac0674ada7586820756a777d71b632.bin"
		}
	]
}
