{
	"asset":{
		"generator":"Khronos glTF Blender I/O v4.4.56",
		"version":"2.0"
	},
	"scene":0,
	"scenes":[
		{
			"name":"Scene",
			"nodes":[
				0
			]
		}
	],
	"nodes":[
		{
			"mesh":0,
			"name":"WoodFire"
		}
	],
	"materials":[
		{
			"doubleSided":true,
			"name":"Wood",
			"pbrMetallicRoughness":{
				"baseColorFactor":[
					0.20189261436462402,
					0.10397916287183762,
					0.07928955554962158,
					1
				],
				"metallicFactor":0,
				"roughnessFactor":0.5
			}
		},
		{
			"doubleSided":true,
			"name":"DarkWood",
			"pbrMetallicRoughness":{
				"baseColorFactor":[
					0.11927328258752823,
					0.0632803663611412,
					0.05076603218913078,
					1
				],
				"metallicFactor":0,
				"roughnessFactor":0.5
			}
		},
		{
			"doubleSided":true,
			"name":"Fire",
			"pbrMetallicRoughness":{
				"baseColorFactor":[
					0.5711249709129333,
					0.17027759552001953,
					0.024706603959202766,
					1
				],
				"metallicFactor":0,
				"roughnessFactor":0.5
			}
		}
	],
	"meshes":[
		{
			"name":"Cylinder.009",
			"primitives":[
				{
					"attributes":{
						"POSITION":0,
						"NORMAL":1
					},
					"indices":2,
					"material":0
				},
				{
					"attributes":{
						"POSITION":3,
						"NORMAL":4
					},
					"indices":5,
					"material":1
				},
				{
					"attributes":{
						"POSITION":6,
						"NORMAL":7
					},
					"indices":8,
					"material":2
				}
			]
		}
	],
	"accessors":[
		{
			"bufferView":0,
			"componentType":5126,
			"count":168,
			"max":[
				0.39179348945617676,
				0.35614803433418274,
				0.390035480260849
			],
			"min":[
				-0.3716290295124054,
				-0.053152382373809814,
				-0.41477954387664795
			],
			"type":"VEC3"
		},
		{
			"bufferView":1,
			"componentType":5126,
			"count":168,
			"type":"VEC3"
		},
		{
			"bufferView":2,
			"componentType":5123,
			"count":288,
			"type":"SCALAR"
		},
		{
			"bufferView":3,
			"componentType":5126,
			"count":84,
			"max":[
				0.06499001383781433,
				0.3950721025466919,
				0.41184061765670776
			],
			"min":[
				-0.38380590081214905,
				-0.051727294921875,
				-0.28726881742477417
			],
			"type":"VEC3"
		},
		{
			"bufferView":4,
			"componentType":5126,
			"count":84,
			"type":"VEC3"
		},
		{
			"bufferView":5,
			"componentType":5123,
			"count":144,
			"type":"SCALAR"
		},
		{
			"bufferView":6,
			"componentType":5126,
			"count":240,
			"max":[
				0.18964043259620667,
				0.7749737501144409,
				0.17584168910980225
			],
			"min":[
				-0.17636382579803467,
				0.07686932384967804,
				-0.1739220917224884
			],
			"type":"VEC3"
		},
		{
			"bufferView":7,
			"componentType":5126,
			"count":240,
			"type":"VEC3"
		},
		{
			"bufferView":8,
			"componentType":5123,
			"count":240,
			"type":"SCALAR"
		}
	],
	"bufferViews":[
		{
			"buffer":0,
			"byteLength":2016,
			"byteOffset":0,
			"target":34962
		},
		{
			"buffer":0,
			"byteLength":2016,
			"byteOffset":2016,
			"target":34962
		},
		{
			"buffer":0,
			"byteLength":576,
			"byteOffset":4032,
			"target":34963
		},
		{
			"buffer":0,
			"byteLength":1008,
			"byteOffset":4608,
			"target":34962
		},
		{
			"buffer":0,
			"byteLength":1008,
			"byteOffset":5616,
			"target":34962
		},
		{
			"buffer":0,
			"byteLength":288,
			"byteOffset":6624,
			"target":34963
		},
		{
			"buffer":0,
			"byteLength":2880,
			"byteOffset":6912,
			"target":34962
		},
		{
			"buffer":0,
			"byteLength":2880,
			"byteOffset":9792,
			"target":34962
		},
		{
			"buffer":0,
			"byteLength":480,
			"byteOffset":12672,
			"target":34963
		}
	],
	"buffers":[
		{
			"byteLength":13152,
			"uri":"Woodfire-8397a3f753439172c0cd42d9735343e5.bin"
		}
	]
}
